<?xml version="1.0" encoding="UTF-8" standalone="no"?>
<!DOCTYPE svg PUBLIC "-//W3C//DTD SVG 1.1//EN" "http://www.w3.org/Graphics/SVG/1.1/DTD/svg11.dtd">
<svg version="1.1" xmlns="http://www.w3.org/2000/svg" xmlns:xlink="http://www.w3.org/1999/xlink" preserveAspectRatio="xMidYMid meet" viewBox="0 0 640 640" width="640" height="640"><defs><path d="M551.52 320.77C551.52 446.31 450.9 548.24 326.96 548.24C203.02 548.24 102.4 446.31 102.4 320.77C102.4 195.22 203.02 93.3 326.96 93.3C450.9 93.3 551.52 195.22 551.52 320.77Z" id="bLNRa9Nhm"></path><path d="M144.5 168.83L145.48 160.29L146.71 160.05L150.49 167.8L144.5 168.83Z" id="cAarqamUH"></path><path d="M473.68 272.6C467.21 272.55 461.9 268.58 461.82 263.82C461.82 263.65 461.82 262.32 461.82 262.16C461.77 257.4 466.96 253.54 473.36 253.62C475.26 253.62 490.49 253.67 492.4 253.67C498.87 253.73 504.17 257.7 504.26 262.46C504.26 262.62 504.26 263.95 504.26 264.12C504.31 268.88 499.14 272.71 492.72 272.66C488.91 272.65 475.59 272.61 473.68 272.6Z" id="crAiUyEIo"></path><path d="M143.22 271.52C136.75 271.46 131.45 267.49 131.36 262.73C131.36 262.56 131.36 261.24 131.36 261.07C131.31 256.31 136.51 252.45 142.9 252.53C144.8 252.53 160.03 252.58 161.94 252.58C168.41 252.64 173.72 256.61 173.8 261.37C173.8 261.54 173.8 262.86 173.8 263.03C173.88 267.79 168.68 271.62 162.26 271.57C158.46 271.56 145.13 271.52 143.22 271.52Z" id="aolW8JTre"></path><path d="M263.29 583.64C262.8 590.11 270.36 595.31 276.67 595.01C284.23 594.66 288.34 588.84 288.83 582.31C289.56 572.6 290.3 562.89 291.09 553.18C291.58 546.7 284.01 541.51 277.7 541.81C270.11 542.16 266.09 547.95 265.54 554.51C265.54 554.51 265.54 554.51 265.54 554.51C264.57 567.46 263.81 577.17 263.29 583.64Z" id="b6fTYl3Av5"></path><path d="M363.11 586.39C364.15 592.81 372.69 596.1 378.75 594.33C386.02 592.18 388.65 585.65 387.62 579.18C386.1 569.61 384.57 559.95 383.05 550.35C382.02 543.93 373.48 540.64 367.41 542.4C360.15 544.55 357.51 551.08 358.54 557.56C358.54 557.56 358.54 557.56 358.54 557.56C360.57 570.38 362.1 579.99 363.11 586.39Z" id="cmUANDw56"></path><path d="M119.21 538.19C119.55 542.31 122.34 575.28 122.69 579.4C122.69 598.93 140.69 614.95 162.75 614.95C162.75 614.95 162.75 614.95 162.75 614.95C184.81 614.95 202.82 598.95 202.82 579.4C203.05 576.64 204.21 562.88 206.3 538.11C206.3 538.11 206.3 538.11 206.3 538.11C205.81 540.88 186.53 543.08 162.75 543.08C139.12 543.08 119.89 540.88 119.21 538.19Z" id="biDyyCqZP"></path><path d="M119.21 538.08C119.21 538.07 119.21 538.03 119.21 538.03C119.4 535.28 138.82 533.02 162.75 533.02C186.69 533.02 206.11 535.28 206.3 538.03C206.3 538.03 206.3 538.07 206.3 538.08C206.17 540.83 186.74 543.08 162.75 543.08C138.76 543.08 119.26 540.83 119.21 538.08Z" id="chjuEiM8M"></path><path d="M126.06 537.94C126.06 537.94 126.06 537.89 126.06 537.89C126.25 535.58 142.6 533.67 162.75 533.67C182.96 533.67 199.34 535.58 199.45 537.89C199.45 537.89 199.45 537.94 199.45 537.94C199.39 540.34 182.96 542.21 162.75 542.21C142.54 542.21 126.12 540.31 126.06 537.94Z" id="aCjxYF9JY"></path><path d="M128.62 559.32C133.08 563.65 135.88 570.31 139.5 575.37C140.83 572.62 142.05 569.82 143.09 566.94C144.37 563.51 148.96 560.36 152.55 563.1C156.39 566.1 159.27 569.44 161.77 573.6C163.92 577.19 165.69 581.49 169.04 584.16C172.27 586.8 175.95 587.5 177.28 582.88C178.45 578.8 178.01 574.45 179.35 570.37C180.43 566.94 182.15 563.46 185.63 561.93C189.71 560.17 193.68 562.37 197.35 564.19C199.56 565.28 201.68 566.45 203.77 567.73C203.7 568.6 203.11 575.54 203.04 576.41C199.31 574.09 194.74 571.21 190.88 570.67C188.43 570.31 188.62 571.94 188.43 574.2C188.32 576.21 188.32 578.28 188.19 580.32C187.94 584.48 187.34 588.62 184.9 592.05C179.65 599.44 169.8 599.06 162.92 594.36C159.19 591.86 156.5 588.56 154.13 584.78C153.34 583.56 152.61 582.28 151.82 581C148.83 587.91 144.31 594.14 136.8 591.5C132.15 589.84 129.11 584.78 126.36 581C125.52 579.83 123.91 576.98 122.33 574.42C122.22 573.18 121.67 566.99 120.67 555.84C124.37 556.62 127.02 557.78 128.62 559.32Z" id="b4K6rGOmu9"></path><path d="M111.15 400.17C115.81 404.09 118.23 409.45 120.81 414.78C123.5 420.41 126.8 425.52 130.63 430.37C138.44 440.32 147.11 449.54 152.8 460.97C163.84 483.08 166.53 509.08 158.92 532.72C158.67 533.46 160.14 529.73 157.75 536.26C155.6 542.19 147.2 539 147.25 532.1C147.3 525.32 145.54 519.04 142.54 513.06C136.61 501.14 129.16 490.04 123.37 478.08C117.49 465.97 112.38 453.51 108.22 440.76C104.19 428.33 100.36 415.19 103.65 402.19C104.57 398.65 108.71 398.11 111.15 400.17Z" id="hszEALZRn"></path><path d="M168 337.1C162.86 354.56 166.53 373.05 169.72 390.54C172.95 408.39 176.74 426.1 178.94 444.1C182.86 476.04 181.58 511.94 161.34 538.71C159.14 541.59 154.57 539.2 156.39 535.77C158.4 531.99 153.34 507.07 151.09 499.13C148.83 490.89 146.52 482.7 144.5 474.4C140.48 458.22 137.19 441.74 136.32 425.06C134.49 392.61 142.49 361.22 157.99 332.88C160.99 327.44 169.72 331.11 168 337.1Z" id="dFGyFoTcT"></path><path d="M170.59 477.31C172.85 466.68 175.97 455.93 180.9 446.22C185.6 437 192.81 430.47 201.24 424.74C209.19 419.35 218.6 414.05 221.4 404.23C223.06 398.35 233.01 399.22 232.39 405.7C231.05 418.89 225.48 430.5 219 441.9C212.1 454 206.06 465.59 202.71 479.22C196.92 502.56 191.91 532.78 165.34 539.93C162.07 540.77 162.51 533.81 167.65 510.53C170.04 499.65 168.25 488.11 170.59 477.31Z" id="b6TUqAzeC"></path><path d="M222.84 289.33C243.35 288.9 263.34 283.4 274.87 265.01C282.52 252.8 263.21 241.57 255.59 253.73C247.78 266.18 232.2 267.11 218.9 266.97C202.41 266.86 187.81 262.32 173.28 254.87C160.5 248.37 149.13 267.65 161.97 274.18C161.97 274.18 161.97 274.18 161.97 274.18C187.93 284.57 208.22 289.62 222.84 289.33Z" id="ch8VQlsSE"></path><path d="M414.3 267C400.27 267.11 387.57 265.53 379.62 252.72C372.06 240.51 352.75 251.74 360.34 264.01C365.29 272 372.01 279.02 380.44 283.24C389.91 288 399.86 289.11 410.31 289.36C432.23 289.79 451.84 284.11 471.18 274.21C483.99 267.65 472.68 248.37 459.92 254.9C459.92 254.9 459.92 254.9 459.92 254.9C440.5 262.87 425.29 266.91 414.3 267Z" id="bKsbJvwXy"></path><path d="M519.95 387.42L486.55 359.81L527.59 345.83L519.95 387.42Z" id="c5Nu5OWuR"></path><path d="M226.4 1.03C214.02 1.03 203.99 11.07 203.99 23.45C203.99 35.83 214.02 45.86 226.4 45.86C238.78 45.86 248.82 35.83 248.82 23.45C248.82 11.07 238.78 1.03 226.4 1.03Z" id="cAnw1ROca"></path><path d="M247.21 68.14C247.1 67.89 247.21 67.59 247.46 67.46C247.61 67.39 248.38 67.04 249.77 66.42C249.15 65.04 248.8 64.27 248.73 64.11C248.63 63.87 248.73 63.57 248.98 63.43C249.22 63.32 249.52 63.43 249.66 63.68C249.75 63.9 250.23 64.99 251.07 66.97C249.1 67.82 248 68.29 247.78 68.38C247.84 68.44 247.76 68.44 247.7 68.44C247.51 68.44 247.35 68.33 247.21 68.14Z" id="g1dRBnz6HI"></path><path d="M199.58 88.97C199.47 88.73 199.58 88.43 199.83 88.29C200.43 88.03 205.21 85.92 205.81 85.65C206.06 85.55 206.36 85.65 206.49 85.9C206.6 86.14 206.49 86.44 206.25 86.58C205.65 86.84 200.86 88.95 200.26 89.22C200.18 89.27 200.13 89.27 200.07 89.27C199.88 89.27 199.72 89.16 199.58 88.97ZM211.5 83.78C211.39 83.53 211.5 83.23 211.74 83.1C212.34 82.83 217.13 80.72 217.73 80.46C217.97 80.35 218.27 80.46 218.41 80.7C218.52 80.95 218.41 81.25 218.16 81.38C217.56 81.65 212.78 83.76 212.18 84.02C212.1 84.08 212.04 84.08 211.99 84.08C211.8 84.08 211.63 83.97 211.5 83.78ZM223.41 78.58C223.3 78.34 223.41 78.04 223.66 77.9C224.25 77.64 229.04 75.53 229.64 75.26C229.88 75.15 230.18 75.26 230.32 75.51C230.46 75.75 230.32 76.05 230.08 76.19C229.48 76.45 224.69 78.56 224.09 78.83C224.01 78.88 223.96 78.88 223.9 78.88C223.71 78.88 223.55 78.77 223.41 78.58ZM235.3 73.33C235.19 73.09 235.3 72.79 235.54 72.65C236.14 72.39 240.93 70.28 241.53 70.01C241.77 69.91 242.07 70.01 242.21 70.26C242.32 70.5 242.21 70.8 241.96 70.94C241.36 71.2 236.58 73.31 235.98 73.58C235.92 73.63 235.87 73.63 235.79 73.63C235.6 73.63 235.43 73.52 235.3 73.33Z" id="b7yd7bwRo"></path><path d="M189.63 90.01C189.52 89.76 189.63 89.46 189.87 89.33C190.12 89.22 190.42 89.33 190.55 89.57C190.62 89.73 190.97 90.5 191.59 91.88C192.97 91.26 193.74 90.92 193.9 90.85C194.14 90.74 194.44 90.85 194.58 91.09C194.69 91.34 194.58 91.64 194.33 91.77C194.11 91.88 193.02 92.38 191.04 93.3C190.19 91.32 189.72 90.23 189.63 90.01Z" id="a70BEAErrF"></path><path d="M187.18 84.51C186.94 83.96 184.98 79.52 184.73 78.96C184.62 78.72 184.73 78.42 184.98 78.28C185.22 78.17 185.52 78.28 185.66 78.53C185.9 79.08 187.86 83.52 188.1 84.08C188.21 84.32 188.1 84.62 187.86 84.76C187.81 84.76 187.72 84.81 187.67 84.81C187.48 84.81 187.32 84.7 187.18 84.51ZM182.31 73.39C182.07 72.83 180.11 68.39 179.86 67.84C179.75 67.59 179.86 67.29 180.11 67.16C180.35 67.05 180.65 67.16 180.79 67.4C181.03 67.96 182.99 72.4 183.24 72.95C183.34 73.2 183.24 73.5 182.99 73.63C182.96 73.69 182.86 73.69 182.8 73.69C182.61 73.69 182.45 73.58 182.31 73.39ZM177.47 62.34C177.22 61.79 175.27 57.35 175.02 56.79C174.91 56.55 175.02 56.25 175.27 56.11C175.51 56.01 175.81 56.11 175.95 56.36C176.19 56.91 178.15 61.35 178.39 61.91C178.5 62.15 178.39 62.45 178.15 62.59C178.1 62.64 178.01 62.64 177.96 62.64C177.77 62.64 177.61 62.53 177.47 62.34Z" id="bWG1pi7B"></path><path d="M172.66 51.3C172.56 51.08 172.09 49.98 171.24 48.01C173.22 47.16 174.31 46.69 174.53 46.59C174.78 46.49 175.08 46.59 175.21 46.84C175.32 47.08 175.21 47.38 174.97 47.52C174.81 47.59 174.04 47.93 172.66 48.55C173.28 49.94 173.62 50.71 173.69 50.86C173.8 51.11 173.69 51.41 173.44 51.54C173.25 51.6 173.2 51.6 173.14 51.6C172.95 51.6 172.79 51.49 172.66 51.3Z" id="dwwHh50e4"></path><path d="M180.16 44.69C180.05 44.45 180.16 44.15 180.41 44.01C181.01 43.75 185.79 41.64 186.39 41.37C186.64 41.26 186.94 41.37 187.07 41.62C187.21 41.86 187.07 42.16 186.83 42.3C186.23 42.56 181.44 44.67 180.84 44.94C180.84 44.94 180.71 44.99 180.65 44.99C180.46 44.99 180.3 44.88 180.16 44.69ZM192.08 39.44C191.97 39.2 192.08 38.9 192.32 38.76C192.92 38.5 197.71 36.39 198.31 36.12C198.55 36.01 198.85 36.12 198.99 36.37C199.09 36.61 198.99 36.91 198.74 37.05C198.14 37.31 193.35 39.42 192.76 39.69C192.76 39.74 192.62 39.74 192.57 39.74C192.38 39.74 192.21 39.63 192.08 39.44ZM203.99 34.25C203.88 34 203.99 33.7 204.23 33.57C204.83 33.3 209.62 31.19 210.22 30.93C210.46 30.82 210.76 30.93 210.9 31.17C211.01 31.42 210.9 31.72 210.65 31.85C210.06 32.12 205.27 34.23 204.67 34.49C204.64 34.54 204.59 34.54 204.48 34.54C204.29 34.54 204.13 34.44 203.99 34.25ZM215.96 29.05C215.85 28.81 215.96 28.51 216.2 28.37C216.8 28.11 221.59 26 222.19 25.73C222.43 25.62 222.73 25.73 222.87 25.98C222.98 26.22 222.87 26.52 222.62 26.66C222.02 26.92 217.24 29.03 216.64 29.29C216.56 29.29 216.5 29.35 216.45 29.35C216.26 29.35 216.09 29.24 215.96 29.05Z" id="d3MZf3NyOP"></path><path d="M231.9 25.41C231.83 25.25 231.48 24.48 230.86 23.09C229.48 23.71 228.71 24.06 228.55 24.13C228.31 24.24 228.01 24.13 227.87 23.88C227.74 23.64 227.87 23.34 228.12 23.2C228.34 23.11 229.43 22.64 231.41 21.79C232.26 23.76 232.73 24.86 232.82 25.08C232.93 25.32 232.82 25.62 232.58 25.76C232.5 25.7 232.44 25.7 232.39 25.7C232.2 25.7 232.03 25.6 231.9 25.41Z" id="bcqQYwx4y"></path><path d="M246.37 58.62C246.12 58.06 244.17 53.62 243.92 53.07C243.81 52.82 243.92 52.52 244.17 52.39C244.41 52.28 244.71 52.39 244.85 52.63C245.09 53.19 247.05 57.63 247.29 58.18C247.4 58.43 247.29 58.73 247.05 58.86C247.02 58.86 246.91 58.92 246.86 58.92C246.67 58.92 246.5 58.81 246.37 58.62ZM241.53 47.52C241.28 46.96 239.32 42.53 239.08 41.97C238.97 41.73 239.08 41.43 239.32 41.29C239.57 41.18 239.87 41.29 240 41.54C240.25 42.09 242.21 46.53 242.45 47.08C242.56 47.33 242.45 47.63 242.21 47.76C242.15 47.82 242.1 47.82 242.02 47.82C241.83 47.82 241.66 47.71 241.53 47.52ZM236.71 36.45C236.47 35.89 234.51 31.45 234.26 30.9C234.16 30.65 234.26 30.36 234.51 30.22C234.75 30.11 235.05 30.22 235.19 30.46C235.43 31.02 237.39 35.46 237.64 36.01C237.75 36.26 237.64 36.56 237.39 36.69C237.31 36.75 237.26 36.75 237.2 36.75C237.01 36.75 236.85 36.64 236.71 36.45Z" id="bPykXHZVo"></path><path d="M493.65 398.89C493.4 398.84 493.35 398.6 493.4 398.35C493.46 398.11 493.7 398 493.95 398.11C494.08 398.16 494.73 398.4 495.91 398.84C496.35 397.67 496.59 397.01 496.64 396.88C496.69 396.64 496.94 396.58 497.18 396.64C497.43 396.69 497.48 396.94 497.43 397.18C497.36 397.36 497.02 398.28 496.4 399.93C494.75 399.31 493.83 398.96 493.65 398.89Z" id="e2Mb6pnN5M"></path><path d="M489.32 397.32C488.9 397.16 485.48 395.9 485.05 395.74C484.81 395.69 484.75 395.44 484.81 395.2C484.86 394.95 485.11 394.84 485.35 394.95C485.78 395.11 489.2 396.37 489.62 396.53C489.87 396.58 489.92 396.83 489.87 397.07C489.79 397.24 489.59 397.32 489.43 397.32C489.38 397.32 489.34 397.32 489.32 397.32ZM480.75 394.13C480.33 393.98 476.91 392.72 476.48 392.56C476.24 392.5 476.19 392.26 476.24 392.01C476.29 391.77 476.54 391.71 476.78 391.77C477.21 391.93 480.63 393.19 481.05 393.35C481.3 393.4 481.35 393.65 481.3 393.89C481.16 394 481.05 394.13 480.86 394.13C480.81 394.13 480.78 394.13 480.75 394.13ZM472.16 390.95C471.73 390.79 468.32 389.53 467.89 389.37C467.64 389.32 467.59 389.08 467.64 388.83C467.7 388.59 467.94 388.48 468.19 388.59C468.62 388.74 472.03 390.01 472.46 390.16C472.7 390.22 472.76 390.46 472.7 390.71C472.62 390.84 472.43 390.95 472.27 390.95C472.21 390.95 472.18 390.95 472.16 390.95ZM463.54 387.72C463.11 387.56 459.69 386.3 459.27 386.14C459.02 386.08 458.97 385.84 459.02 385.59C459.08 385.35 459.32 385.24 459.57 385.35C459.99 385.51 463.41 386.77 463.84 386.93C464.08 386.98 464.14 387.23 464.08 387.47C464.03 387.61 463.84 387.72 463.65 387.72C463.59 387.72 463.56 387.72 463.54 387.72Z" id="dqHbZFydU"></path><path d="M455 384.53C454.81 384.46 453.9 384.12 452.25 383.5C452.87 381.85 453.21 380.94 453.28 380.75C453.34 380.51 453.58 380.4 453.83 380.51C454.07 380.56 454.13 380.81 454.07 381.05C454.02 381.18 453.78 381.83 453.34 383.01C454.51 383.45 455.16 383.7 455.3 383.74C455.54 383.8 455.59 384.04 455.54 384.29C455.4 384.42 455.3 384.53 455.1 384.53C455.05 384.53 455.02 384.53 455 384.53Z" id="e9fEUMqty"></path><path d="M455.1 376.97C454.86 376.92 454.81 376.67 454.86 376.43C455.02 376 456.28 372.58 456.44 372.16C456.49 371.91 456.74 371.8 456.98 371.91C457.23 371.97 457.28 372.21 457.23 372.46C457.07 372.88 455.81 376.3 455.65 376.73C455.51 376.84 455.35 376.97 455.21 376.97C455.16 376.97 455.13 376.97 455.1 376.97ZM458.29 368.43C458.04 368.38 457.99 368.13 458.04 367.89C458.2 367.46 459.46 364.04 459.62 363.62C459.67 363.37 459.92 363.26 460.16 363.37C460.41 363.43 460.46 363.67 460.41 363.92C460.25 364.34 458.99 367.76 458.83 368.19C458.75 368.29 458.59 368.43 458.4 368.43C458.34 368.43 458.31 368.43 458.29 368.43ZM461.47 359.81C461.22 359.75 461.17 359.51 461.22 359.26C461.38 358.84 462.64 355.42 462.8 354.99C462.86 354.75 463.1 354.64 463.35 354.75C463.59 354.8 463.65 355.05 463.59 355.29C463.43 355.72 462.17 359.14 462.01 359.56C461.93 359.7 461.74 359.81 461.58 359.81C461.52 359.81 461.49 359.81 461.47 359.81ZM464.71 351.21C464.46 351.16 464.41 350.91 464.46 350.67C464.62 350.24 465.88 346.83 466.04 346.4C466.09 346.15 466.34 346.04 466.58 346.15C466.83 346.21 466.88 346.45 466.83 346.7C466.67 347.12 465.41 350.54 465.25 350.97C465.11 351.13 464.98 351.21 464.82 351.21C464.76 351.21 464.73 351.21 464.71 351.21Z" id="a1hiS65MrX"></path><path d="M467.89 342.64C467.64 342.59 467.59 342.35 467.64 342.1C467.71 341.92 468.06 341 468.68 339.35C470.33 339.97 471.24 340.32 471.43 340.39C471.67 340.44 471.72 340.69 471.67 340.93C471.62 341.18 471.37 341.23 471.13 341.18C471 341.13 470.34 340.88 469.17 340.44C468.73 341.62 468.48 342.27 468.43 342.4C468.35 342.54 468.16 342.64 468 342.64C467.94 342.64 467.91 342.64 467.89 342.64Z" id="b34URS1Ps"></path><path d="M505.51 353.96C505.08 353.8 501.66 352.54 501.24 352.38C500.99 352.33 500.94 352.08 500.99 351.84C501.05 351.59 501.29 351.48 501.54 351.59C501.96 351.75 505.38 353.01 505.81 353.17C506.05 353.23 506.11 353.47 506.05 353.71C505.97 353.82 505.78 353.96 505.62 353.96C505.56 353.96 505.53 353.96 505.51 353.96ZM496.88 350.78C496.46 350.62 493.04 349.36 492.61 349.2C492.37 349.15 492.32 348.9 492.37 348.66C492.42 348.41 492.67 348.36 492.91 348.41C493.34 348.57 496.76 349.83 497.18 349.99C497.43 350.04 497.48 350.29 497.43 350.53C497.35 350.64 497.18 350.78 496.99 350.78C496.94 350.78 496.91 350.78 496.88 350.78ZM488.34 347.54C487.92 347.38 484.5 346.12 484.07 345.96C483.83 345.91 483.77 345.66 483.83 345.42C483.88 345.17 484.13 345.07 484.37 345.17C484.8 345.33 488.22 346.59 488.64 346.75C488.89 346.81 488.94 347.05 488.89 347.3C488.75 347.4 488.62 347.54 488.45 347.54C488.4 347.54 488.37 347.54 488.34 347.54ZM479.72 344.36C479.29 344.2 475.88 342.94 475.45 342.78C475.21 342.73 475.15 342.48 475.21 342.24C475.26 341.99 475.51 341.88 475.75 341.99C476.18 342.15 479.59 343.41 480.02 343.57C480.27 343.62 480.32 343.87 480.27 344.11C480.21 344.25 480.02 344.36 479.83 344.36C479.78 344.36 479.74 344.36 479.72 344.36Z" id="b1RjmAltwG"></path><path d="M511.3 358.77C511.06 358.72 511 358.48 511.06 358.23C511.11 358.1 511.35 357.45 511.79 356.27C510.62 355.83 509.96 355.59 509.83 355.54C509.59 355.48 509.53 355.24 509.59 354.99C509.64 354.75 509.89 354.64 510.13 354.75C510.31 354.82 511.23 355.16 512.88 355.78C512.26 357.43 511.91 358.35 511.84 358.53C511.71 358.72 511.6 358.77 511.41 358.77C511.36 358.77 511.32 358.77 511.3 358.77Z" id="b1C9z9tQNp"></path><path d="M498.46 393.16C498.22 393.1 498.16 392.86 498.22 392.61C498.38 392.18 499.64 388.77 499.8 388.34C499.85 388.1 500.09 387.99 500.34 388.1C500.58 388.15 500.64 388.4 500.58 388.64C500.43 389.07 499.16 392.48 499.01 392.91C498.95 393.02 498.76 393.16 498.57 393.16C498.52 393.16 498.48 393.16 498.46 393.16ZM501.64 384.53C501.4 384.48 501.35 384.23 501.4 383.99C501.56 383.56 502.82 380.15 502.98 379.72C503.03 379.47 503.28 379.37 503.52 379.47C503.77 379.53 503.82 379.77 503.77 380.02C503.61 380.44 502.35 383.86 502.19 384.29C502.13 384.48 501.94 384.53 501.75 384.53C501.7 384.53 501.67 384.53 501.64 384.53ZM504.88 375.99C504.64 375.94 504.58 375.69 504.64 375.45C504.79 375.02 506.06 371.6 506.21 371.18C506.27 370.93 506.51 370.82 506.76 370.93C507 370.99 507.06 371.23 507 371.48C506.85 371.9 505.58 375.32 505.43 375.75C505.29 375.88 505.18 375.99 504.99 375.99C504.94 375.99 504.9 375.99 504.88 375.99ZM508.06 367.37C507.82 367.32 507.76 367.07 507.82 366.83C507.98 366.4 509.24 362.98 509.4 362.56C509.45 362.31 509.7 362.2 509.94 362.31C510.19 362.36 510.24 362.61 510.19 362.85C510.03 363.28 508.77 366.7 508.61 367.12C508.53 367.26 508.36 367.37 508.17 367.37C508.12 367.37 508.09 367.37 508.06 367.37Z" id="d1kbxhKEEU"></path><path d="M365.21 147.18C359.58 124.77 344.32 111.28 322.77 111.28C300.91 111.28 285.51 125.01 279.47 147.32C273.3 170.27 265.19 194.29 265.19 194.29C264.21 197.34 265.74 200.58 268.67 201.8C275.64 204.55 290.16 209.44 322.72 209.06C351.8 208.71 366.81 204.6 374.37 203.81C378.15 203.35 380.6 199.68 379.62 196.09C376.74 186.31 368.82 161.71 365.21 147.18Z" id="a87XNqUhW"></path><path d="M310.29 185.21C310.29 210.6 310.29 224.71 310.29 227.53C310.29 231.07 313.17 233.95 316.71 233.95C317.91 233.95 327.53 233.95 328.73 233.95C332.27 233.95 335.15 231.07 335.15 227.53C335.15 224.71 335.15 210.6 335.15 185.21L310.29 185.21Z" id="courrLSkJ"></path><path d="M305.96 126.35L305.96 126.35L305.96 126.35Z" id="aecQd9QtO"></path><path d="M322.39 76.95C313.83 76.95 306.89 83.89 306.89 92.45C306.89 101.02 313.83 107.96 322.39 107.96C330.96 107.96 337.9 101.02 337.9 92.45C337.9 83.89 330.96 76.95 322.39 76.95Z" id="a2i8496qa1"></path><path d="M281.7 175.12C281.7 173.57 281.81 160.02 285.86 160.02C289.89 160.02 290.03 173.57 290.03 175.12C289.97 176.67 289.83 190.21 285.86 190.21C281.84 190.21 281.7 176.67 281.7 175.12ZM283.96 175.06C283.96 182.46 285.13 186.79 285.86 187.76C286.6 186.79 287.77 182.46 287.77 175.06C287.77 167.69 286.6 163.42 285.86 162.36C285.13 163.34 283.96 167.66 283.96 175.06Z" id="a179q5QfnW"></path><path d="M354.68 175.12C354.68 173.57 354.79 160.02 358.84 160.02C362.87 160.02 363 173.57 363 175.12C362.95 176.67 362.81 190.21 358.84 190.21C354.82 190.21 354.68 176.67 354.68 175.12ZM356.94 175.06C356.94 182.46 358.11 186.79 358.84 187.76C359.58 186.79 360.75 182.46 360.75 175.06C360.75 167.69 359.58 163.42 358.84 162.36C358.11 163.34 356.94 167.66 356.94 175.06Z" id="f54hR6U530"></path><path d="M322.75 112.23C300.05 112.23 281.65 130.63 281.65 153.33C281.65 176.03 300.05 194.43 322.75 194.43C345.45 194.43 363.85 176.03 363.85 153.33C363.85 130.63 345.45 112.23 322.75 112.23Z" id="a1sLmxbTdh"></path><path d="M280.99 158.28C280.99 158.33 280.99 158.47 280.99 158.52C281.05 159.26 281.18 159.94 281.29 160.67C281.29 160.68 281.29 160.72 281.29 160.73C281.4 161.46 281.59 162.2 281.73 162.99C284.48 151.62 294.68 143.26 306.89 143.26C308.41 143.26 309.88 143.37 311.35 143.62C312.44 143.86 313.55 143.97 314.7 143.97C322.34 143.97 328.68 138.18 329.47 130.73C329.47 130.73 329.52 130.73 329.52 130.67C329.41 131.46 329.33 132.25 329.33 133.06C329.33 141.8 336.4 148.87 345.13 148.87C345.14 148.87 345.18 148.87 345.19 148.87C353.73 150.58 360.58 156.92 363.09 165.16C363.09 165.16 363.09 165.16 363.09 165.16C363.63 163.34 364.01 161.43 364.31 159.53C364.31 159.48 364.31 159.42 364.31 159.29C364.42 158.5 364.5 157.71 364.55 156.84C364.55 156.65 364.61 156.4 364.61 156.24C364.66 155.31 364.72 154.42 364.72 153.49C364.72 152.7 364.72 151.97 364.66 151.23C364.66 150.99 364.61 150.8 364.61 150.55C364.55 150.01 364.55 149.47 364.5 148.98C364.5 148.73 364.45 148.49 364.39 148.24C364.34 147.75 364.28 147.21 364.2 146.72C364.15 146.47 364.15 146.23 364.09 145.98C363.98 145.5 363.9 144.95 363.79 144.46C363.74 144.22 363.68 144.03 363.68 143.78C363.58 143.24 363.44 142.75 363.25 142.2C363.19 142.01 363.14 141.85 363.06 141.66C362.87 141.12 362.7 140.57 362.51 140C362.46 139.89 362.41 139.7 362.41 139.57C362.22 138.97 361.97 138.34 361.73 137.8C361.67 137.74 361.67 137.61 361.62 137.55C361.37 136.87 361.07 136.22 360.77 135.54C360.77 135.54 360.77 135.54 360.77 135.54C357.18 127.84 351.25 121.37 343.91 117.1C343.91 117.1 343.91 117.1 343.91 117.1C341.6 115.77 339.15 114.6 336.59 113.75C336.54 113.75 336.4 113.7 336.35 113.7C335.61 113.45 334.88 113.21 334.09 113.02C333.98 112.96 333.85 112.96 333.74 112.91C332.08 112.47 330.39 112.12 328.68 111.88C328.43 111.82 328.24 111.82 328 111.82C327.32 111.77 326.72 111.71 326.04 111.63C325.79 111.63 325.55 111.58 325.3 111.58C324.46 111.52 323.59 111.52 322.67 111.52C299.46 111.52 280.64 130.34 280.64 153.55C280.64 154.34 280.64 155.07 280.7 155.86C280.8 156.08 280.8 156.21 280.8 156.32C280.86 157 280.91 157.65 280.99 158.28Z" id="dtpsD6qTE"></path><path d="M335.15 212.52C333.49 219.34 330.01 223.15 322.34 223.15C314.53 223.15 311.84 219.24 310.37 212.22C308.79 212.27 303.95 213.25 302.86 213.5C288.69 216.24 282.95 219.92 275.8 225.22C264.86 233.41 254.17 250.38 251.86 254.22C251.56 254.71 251.56 255.3 251.86 255.79C253.14 257.75 256.68 262.81 261.76 266.1C268.84 270.81 277.27 273.36 277.27 273.36C277.27 273.36 280.7 267.14 281.67 264.74C283.01 261.61 286.57 251.11 286.57 251.11C286.57 251.11 283.33 258.13 283.09 265.4C282.9 272.06 285.16 279.57 284.99 283.97C284.5 294.04 281.51 302.71 280.48 306.63C280.23 307.56 280.78 308.53 281.76 308.7C287.2 309.92 303.43 313.59 319.92 313.51C341.35 313.51 356.07 311.2 361.26 310.38C362.24 310.19 362.84 309.3 362.6 308.32C361.75 304.89 360.28 299.04 358.82 285.96C357.65 275.7 358.87 273.75 358.82 266.54C358.82 261.23 356.61 250.6 356.61 250.6C356.82 252.62 358.47 268.84 358.68 270.86C358.68 270.86 366.19 271.22 376.93 266.54C380.66 264.88 385.36 260.66 387.32 258.79C387.87 258.24 388.06 257.37 387.67 256.72C384.98 251.17 373.1 227.78 362.81 221.68C352.37 215.45 340.4 213.31 335.15 212.52Z" id="cImLYGt8k"></path><path d="M310.37 185.21L335.23 185.21C335.23 189.57 335.23 191.99 335.23 192.47C351.04 187.47 362.79 173.1 363.87 155.89C362.54 134.4 344.7 117.34 322.83 117.34C301.01 117.34 283.14 134.37 281.78 155.89C282.82 173.13 294.49 187.47 310.37 192.47C310.37 191.5 310.37 189.08 310.37 185.21Z" id="dnMCD7Ayp"></path><path d="M310.34 192.52C310.34 193.29 310.34 199.45 310.34 200.22C314.26 201.45 318.53 201.5 322.94 201.07C328.73 200.52 331.23 199.41 335.15 197.72C335.15 197.2 335.15 193.04 335.15 192.52C331.26 193.75 327.1 194.43 322.75 194.43C318.42 194.43 314.26 193.75 310.34 192.52Z" id="d1QcowCLh"></path><path d="M321.9 313.54C336.92 313.54 355.5 311.39 355.5 311.39C355.5 311.39 357.16 322.08 357.81 324.39C358.49 326.7 345.54 331.36 322.45 330.87C292.23 330.32 285.02 325.97 285.02 324.75C284.97 323.9 287.47 310.11 287.47 310.11C294.36 310.8 307.73 313.54 321.9 313.54Z" id="b33zautvFM"></path><path d="M397.77 442.01C401.98 484.03 396.68 540.15 395.81 572.22C395.81 573.2 395.56 574.17 395.02 575.02C393.5 577.47 383.73 579.48 381.04 579.67C367.49 580.59 354.9 578.64 353.67 573.88C346.71 545.67 341.27 515.91 337.44 486.43C334.25 462 330.47 434.77 328.32 414.67C328.13 413.01 325.68 412.96 325.52 414.67C325.17 418.02 324.73 436.79 324.24 442.33C322.91 458.08 320.27 473.61 317.72 489.23C313.69 514.03 304.09 549.01 296.83 572.6C296.34 574.17 294.68 576.38 292.85 576.68C289.62 577.17 281.86 577.85 277.76 577.52C271.72 577.03 259.02 575.26 258.34 572.27C249.17 534.11 248.87 460.5 262.12 383.99C265.3 365.79 272.62 345.45 279.34 333.23C279.34 333.23 301.01 337.5 320.92 337.45C344.92 337.34 365.21 331.41 365.21 331.41C383.95 368.68 392.76 392.04 397.77 442.01Z" id="bcfqH6b8D"></path><path d="M171.24 96.48C169.66 95.94 168.74 94.22 169.23 92.56C169.8 90.8 174.34 76.72 174.91 74.96C175.46 73.39 177.17 72.46 178.83 72.95C181.52 73.82 203.07 80.76 205.76 81.63C207.34 82.17 208.26 83.89 207.77 85.55C207.2 87.31 202.65 101.38 202.09 103.14C201.54 104.78 199.77 105.7 198.17 105.16C192.78 103.42 173.93 97.35 171.24 96.48Z" id="b1spsF5Bg4"></path><path d="M208.31 92.21C208.25 92.41 207.92 93.38 207.34 95.15C206.75 96.91 206.42 97.89 206.36 98.08C206.06 99.12 206.36 100.29 207.28 100.89C208.01 101.44 213.82 105.83 214.54 106.38C215.96 107.47 218.03 106.82 218.52 105.1C218.64 104.72 219.28 102.79 220.42 99.31C221.56 95.83 222.2 93.9 222.32 93.52C222.87 91.8 221.59 90.09 219.82 90.17C219.21 90.19 216.18 90.28 210.71 90.44C209.33 90.93 208.53 91.52 208.31 92.21Z" id="a4UTefSksv"></path><path d="M281.18 327.82C279.8 330.27 279.42 333.21 279.42 333.21C279.42 333.21 295.11 337.86 324.79 338.65C353.54 339.38 365.21 331.44 365.21 331.44C365.21 331.44 364.17 328.2 361.73 326.79C359.28 325.37 357.7 324.39 357.7 324.39C357.7 324.39 348.72 332.39 321.31 330.43C293.94 328.42 284.97 324.83 284.97 324.83C284.21 325.43 282.57 325.37 281.18 327.82Z" id="gJnc4jRTM"></path><path d="M160.07 148.24C160.07 148.24 160.07 148.24 160.07 148.24C162.56 182.34 163.94 201.28 164.22 205.07C164.22 205.07 164.22 205.07 164.22 205.07C158.58 205.48 155.45 205.71 154.83 205.76C154.83 205.76 154.83 205.76 154.83 205.76C152.34 171.66 150.96 152.71 150.68 148.92C150.68 148.92 150.68 148.92 150.68 148.92C156.31 148.51 159.44 148.29 160.07 148.24Z" id="f3IW1xsFHQ"></path><path d="M154.43 156.31C154.43 156.31 154.43 156.31 154.43 156.31C154.46 156.71 154.47 156.94 154.48 156.98C154.48 156.98 154.48 156.98 154.48 156.98C152.54 157.12 151.46 157.2 151.25 157.22C151.25 157.22 151.25 157.22 151.25 157.22C151.22 156.81 151.2 156.59 151.2 156.54C151.2 156.54 151.2 156.54 151.2 156.54C153.13 156.4 154.21 156.32 154.43 156.31Z" id="a19oieXfoK"></path><path d="M154.92 162.67C154.92 162.67 154.92 162.67 154.92 162.67C154.95 163.08 154.96 163.3 154.97 163.35C154.97 163.35 154.97 163.35 154.97 163.35C153.03 163.49 151.95 163.57 151.74 163.58C151.74 163.58 151.74 163.58 151.74 163.58C151.71 163.18 151.69 162.95 151.69 162.91C151.69 162.91 151.69 162.91 151.69 162.91C153.63 162.76 154.7 162.69 154.92 162.67Z" id="a80zDKnb9r"></path><path d="M155.41 169.01C155.41 169.01 155.41 169.01 155.41 169.01C155.43 169.41 155.45 169.64 155.45 169.69C155.45 169.69 155.45 169.69 155.45 169.69C153.52 169.83 152.44 169.9 152.23 169.92C152.23 169.92 152.23 169.92 152.23 169.92C152.2 169.51 152.18 169.29 152.18 169.24C152.18 169.24 152.18 169.24 152.18 169.24C154.11 169.1 155.19 169.02 155.41 169.01Z" id="b1WtDyaCKe"></path><path d="M155.81 175.37C155.81 175.37 155.81 175.37 155.81 175.37C155.84 175.78 155.86 176.01 155.86 176.05C155.86 176.05 155.86 176.05 155.86 176.05C153.93 176.19 152.85 176.27 152.64 176.29C152.64 176.29 152.64 176.29 152.64 176.29C152.61 175.88 152.59 175.65 152.59 175.61C152.59 175.61 152.59 175.61 152.59 175.61C154.52 175.47 155.6 175.39 155.81 175.37Z" id="b2yeO02e8F"></path><path d="M156.3 181.79C156.3 181.79 156.3 181.79 156.3 181.79C156.33 182.2 156.35 182.42 156.35 182.47C156.35 182.47 156.35 182.47 156.35 182.47C154.42 182.61 153.34 182.69 153.13 182.71C153.13 182.71 153.13 182.71 153.13 182.71C153.1 182.3 153.08 182.07 153.08 182.03C153.08 182.03 153.08 182.03 153.08 182.03C155.01 181.89 156.09 181.81 156.3 181.79Z" id="b1oDiDvVTI"></path><path d="M156.74 188.13C156.74 188.13 156.74 188.13 156.74 188.13C156.77 188.54 156.78 188.76 156.79 188.81C156.79 188.81 156.79 188.81 156.79 188.81C154.85 188.95 153.77 189.03 153.56 189.04C153.56 189.04 153.56 189.04 153.56 189.04C153.53 188.64 153.51 188.41 153.51 188.36C153.51 188.36 153.51 188.36 153.51 188.36C155.45 188.22 156.52 188.14 156.74 188.13Z" id="a6QfWXwtBr"></path><path d="M157.23 194.49C157.23 194.49 157.23 194.49 157.23 194.49C157.26 194.9 157.28 195.13 157.28 195.17C157.28 195.17 157.28 195.17 157.28 195.17C155.34 195.31 154.27 195.39 154.05 195.41C154.05 195.41 154.05 195.41 154.05 195.41C154.02 195 154 194.77 154 194.73C154 194.73 154 194.73 154 194.73C155.94 194.59 157.01 194.51 157.23 194.49Z" id="aoxE8I2GH"></path><path d="M150.48 167.81C150.48 167.81 150.48 167.81 150.48 167.81C155.2 194.73 157.81 209.69 158.34 212.68C158.34 212.68 158.34 212.68 158.34 212.68C154.77 213.31 152.79 213.65 152.39 213.72C152.39 213.72 152.39 213.72 152.39 213.72C147.68 186.8 145.06 171.84 144.54 168.85C144.54 168.85 144.54 168.85 144.54 168.85C148.1 168.22 150.09 167.87 150.48 167.81Z" id="c2y89NCJoq"></path><path d="M146.71 163.67L147.36 163.72L148.28 163.28L146.71 160.05L145.48 160.29L145.05 163.72L145.84 164.21L146.71 163.67Z" id="f4PzitZRwC"></path><path d="M164.36 204.33C163.33 204.14 162.65 203.16 162.78 202.13C163.24 199.13 166.94 175.15 167.41 172.15C167.46 171.91 167.51 171.66 167.6 171.42C167.87 170.66 170.02 164.61 170.29 163.86C170.64 163.01 171.57 162.44 172.49 162.63C172.54 162.64 172.88 162.68 172.93 162.69C173.85 162.88 174.5 163.72 174.5 164.64C174.44 165.44 173.97 171.84 173.91 172.64C173.91 172.89 173.85 173.13 173.8 173.43C173.08 176.37 167.36 199.92 166.64 202.86C166.37 203.89 165.39 204.57 164.36 204.33C164.36 204.33 164.36 204.33 164.36 204.33Z" id="c4H2MWZ1K"></path><path d="M199.45 224.84C199.45 224.84 199.45 224.84 199.45 224.84C199.45 232.64 199.45 236.97 199.45 237.84C199.45 237.84 199.45 237.84 199.45 237.84C176.11 237.84 163.14 237.84 160.55 237.84C160.55 237.84 160.55 237.84 160.55 237.84C160.55 230.04 160.55 225.71 160.55 224.84C160.55 224.84 160.55 224.84 160.55 224.84C183.89 224.84 196.85 224.84 199.45 224.84Z" id="a2ntPZVXbY"></path><path d="M201.11 224.92L160.5 224.92L160.5 237.92L201.11 237.92L201.11 238.9L117.63 238.9L117.63 223.94L201.11 223.94L201.11 224.92Z" id="abh08d6VV"></path><path d="M205.81 261.18L205.81 240.18C171.33 240.18 152.17 240.18 148.34 240.18C145.45 240.18 143.2 242.49 143.2 245.32C143.2 246.39 143.2 254.94 143.2 256.01C143.14 258.87 145.48 261.18 148.34 261.18C156 261.18 175.16 261.18 205.81 261.18Z" id="b1qQRX9fgd"></path><path d="M208.4 238.9C208.75 238.9 209.08 239.2 209.08 239.58C209.08 239.58 209.08 239.58 209.08 239.58C209.08 239.94 208.78 240.26 208.4 240.26C207.63 240.26 203.78 240.26 196.86 240.26L196.86 240.26C170.98 240.26 156.6 240.26 153.72 240.26C147.93 240.26 143.22 244.97 143.22 250.76C143.22 250.76 143.22 250.76 143.22 250.76C143.22 256.55 147.93 261.26 153.72 261.26C157.27 261.26 175.03 261.26 206.98 261.26L206.98 261.26C207.83 261.26 208.3 261.26 208.4 261.26C208.75 261.26 209.08 261.56 209.08 261.94C209.08 261.94 209.08 261.94 209.08 261.94C209.08 262.29 208.78 262.62 208.4 262.62C198.99 262.62 123.74 262.62 114.34 262.62C108.54 262.62 103.84 257.91 103.84 252.12C103.84 251.86 103.84 249.75 103.84 249.48C103.84 243.61 108.52 238.9 114.34 238.9C133.15 238.9 198.99 238.9 208.4 238.9Z" id="g23BoAon4f"></path><path d="M205.81 243.61C205.81 243.61 205.81 243.61 205.81 243.61C205.81 244.05 205.81 244.29 205.81 244.34C205.81 244.34 205.81 244.34 205.81 244.34C173.09 244.34 154.91 244.34 151.28 244.34C151.28 244.34 151.28 244.34 151.28 244.34C151.28 243.9 151.28 243.66 151.28 243.61C151.28 243.61 151.28 243.61 151.28 243.61C184 243.61 202.18 243.61 205.81 243.61Z" id="a4LBejEsWv"></path><path d="M205.81 252.2C205.81 252.2 205.81 252.2 205.81 252.2C205.81 252.64 205.81 252.89 205.81 252.94C205.81 252.94 205.81 252.94 205.81 252.94C170.74 252.94 151.26 252.94 147.36 252.94C147.36 252.94 147.36 252.94 147.36 252.94C147.36 252.5 147.36 252.25 147.36 252.2C147.36 252.2 147.36 252.2 147.36 252.2C182.43 252.2 201.92 252.2 205.81 252.2Z" id="d2ryWfWyEc"></path><path d="M205.81 256.72C205.81 256.72 205.81 256.72 205.81 256.72C205.81 257.16 205.81 257.4 205.81 257.45C205.81 257.45 205.81 257.45 205.81 257.45C175.03 257.45 157.93 257.45 154.51 257.45C154.51 257.45 154.51 257.45 154.51 257.45C154.51 257.01 154.51 256.77 154.51 256.72C154.51 256.72 154.51 256.72 154.51 256.72C185.29 256.72 202.39 256.72 205.81 256.72Z" id="f1UuJO59SV"></path><path d="M205.87 248.18C205.87 248.18 205.87 248.18 205.87 248.18C205.87 248.62 205.87 248.86 205.87 248.91C205.87 248.91 205.87 248.91 205.87 248.91C171.82 248.91 152.91 248.91 149.13 248.91C149.13 248.91 149.13 248.91 149.13 248.91C149.13 248.47 149.13 248.23 149.13 248.18C149.13 248.18 149.13 248.18 149.13 248.18C183.17 248.18 202.08 248.18 205.87 248.18Z" id="bjutvqWS3"></path><path d="M125.43 223.37L125.43 215.86C146.91 215.86 158.84 215.86 161.23 215.86C162.26 215.86 163.05 216.65 163.05 217.69C163.05 218.06 163.05 221.09 163.05 221.47C163.05 222.53 162.26 223.37 161.23 223.37C156.46 223.37 144.53 223.37 125.43 223.37Z" id="a5NyGrA0Zc"></path><path d="M123.91 215.32C123.8 215.32 123.67 215.43 123.67 215.56C123.67 215.56 123.67 215.56 123.67 215.56C123.67 215.67 123.78 215.81 123.91 215.81C127.44 215.81 155.69 215.81 159.22 215.81C161.29 215.81 162.94 217.52 162.94 219.54C162.94 219.54 162.94 219.54 162.94 219.54C162.94 221.6 161.23 223.26 159.22 223.26C155.69 223.26 127.44 223.26 123.91 223.26C123.8 223.26 123.67 223.37 123.67 223.51C123.67 223.51 123.67 223.51 123.67 223.51C123.67 223.62 123.78 223.75 123.91 223.75C129.87 223.75 177.5 223.75 183.45 223.75C185.52 223.75 187.18 222.04 187.18 220.02C187.18 219.92 187.18 219.05 187.18 218.94C187.23 216.98 185.55 215.32 183.45 215.32C171.55 215.32 129.87 215.32 123.91 215.32Z" id="j1Wl13okNI"></path><path d="M172.46 183.88C173.14 183.88 173.69 184.47 173.55 185.15C173.3 187.16 172.04 197.22 169.77 215.32L148.83 215.32C146.62 197.22 145.4 187.16 145.16 185.15C145.1 184.47 145.64 183.88 146.32 183.88C151.55 183.88 169.85 183.88 172.46 183.88Z" id="a5XrB9i5Qj"></path><path d="M172.52 162.44C171.54 162.25 170.61 162.74 170.26 163.67C169.99 164.44 167.79 170.59 167.51 171.36C167.46 171.47 167.46 171.55 167.46 171.66C168.3 172.4 169.42 172.94 170.7 173.13C171.87 173.32 172.95 173.24 173.88 172.94C173.88 172.83 173.93 172.75 173.93 172.64C173.99 171.83 174.47 165.32 174.53 164.51C174.61 163.53 173.93 162.74 172.95 162.5C172.87 162.48 172.56 162.45 172.52 162.44Z" id="a3tvOwmLNo"></path><path d="M174.31 150.88C174.75 151.72 175.29 152.79 175.73 153.52C176.46 154.8 176.82 157.79 176.46 159.2C176.03 160.92 174.8 162.69 174.45 163.23C174.4 163.34 174.26 163.42 174.15 163.47C173.8 163.58 173.12 163.72 172.19 163.53C170.91 163.23 170.78 162.36 170.78 162.36C170.78 162.36 170.04 159.56 170.18 157.84C170.29 156.13 171.21 153.93 171.65 153.57C171.78 153.27 172.52 151.94 173.09 150.88C173.34 150.39 174.07 150.39 174.31 150.88Z" id="h1lQA35FTc"></path><path d="M288.39 585.06C288.39 585.06 291.87 592.45 292.55 596.29C293.23 600.12 295.25 613.15 292.26 615.57C289.02 618.27 289.62 617.53 285.48 619.3C279.69 621.75 277.19 620.58 269.3 624.6C266.36 626.13 253.66 637.91 240.85 639.02C230.05 639.95 227.16 634.75 225.89 631.87C224.61 628.98 226.92 623.43 234.56 617.75C243.84 610.84 253.14 600.97 255.02 598.46C260.76 590.77 263.31 583.7 263.31 583.7C263.31 583.7 265.49 587.42 274.28 587.61C282.82 587.72 285.57 585.57 288.39 585.06Z" id="g6a9y8h7sh"></path><path d="M363 585.76C363 585.76 359.17 591.39 357.81 598.57C357.13 602.41 355.74 613.97 358.73 616.47C361.97 619.16 361.37 618.43 365.51 620.2C371.3 622.65 373.8 621.48 381.69 625.5C384.63 627.03 397.28 638.94 410.14 639.92C417.95 640.52 423.82 635.65 425.1 632.76C426.38 629.88 426.52 624.03 416.86 617.61C407.2 611.19 395.86 600.99 394.39 598.19C392.14 593.92 387.62 584.46 387.62 584.46C387.62 584.46 385.47 588.26 376.69 588.46C368.14 588.56 365.74 586.3 363 585.76Z" id="cWCIqjMvW"></path><path d="M487.58 168.83C481.46 170.49 475.18 166.87 473.55 160.84C473.25 159.76 470.9 151.17 470.61 150.09C468.95 143.97 472.57 137.69 478.61 136.06C478.61 136.06 478.61 136.06 478.61 136.06C484.73 134.4 491.01 138.02 492.64 144.05C492.94 145.13 495.29 153.72 495.58 154.8C497.24 160.84 493.7 167.15 487.58 168.83C487.58 168.83 487.58 168.83 487.58 168.83Z" id="b7XGC5zxA"></path><path d="M466.26 162.25C466.22 162.12 465.94 161.05 465.9 160.92C465.6 159.75 466.26 158.52 467.43 158.23C468.6 157.93 469.82 158.58 470.12 159.75C470.15 159.88 470.44 160.95 470.47 161.08C472.54 168.72 480.48 173.29 488.18 171.15C495.82 169.08 500.39 161.14 498.24 153.44C498.21 153.3 497.93 152.24 497.89 152.11C497.59 150.94 498.24 149.71 499.41 149.41C500.58 149.11 501.81 149.77 502.11 150.94C502.14 151.07 502.43 152.13 502.46 152.27C505.29 162.36 499.39 172.7 489.35 175.44C479.34 178.19 469 172.26 466.26 162.25Z" id="e5pA0QeE9K"></path><path d="M503.22 175.85C499.63 171.77 493.87 169.81 488.32 171.34C482.69 172.86 478.8 177.46 477.76 182.81C477.57 183.9 478.55 184.83 479.67 184.58C481.19 184.16 488.8 182.07 502.49 178.3C503.47 177.25 503.71 176.43 503.22 175.85Z" id="b85Q6cO09"></path><path d="M444.88 224.54C449.45 224.89 448.01 225.03 449.45 224.89C450.92 224.78 453.17 223.23 456.22 224.16C459.65 225.19 466.86 228.97 466.96 237.41C467.07 244.61 461.82 252.86 452.3 254.76C442.78 256.66 436.36 253.1 433.48 249.02C430.24 244.31 429.94 237.24 432.07 232.78C434.27 228.13 440.31 224.16 444.88 224.54Z" id="acAQrSOCP"></path><path d="M450.59 215.13C455.49 210.07 461.88 205.31 461.39 208.41C461.28 209.14 462.31 219.59 459.38 223.51C454.91 229.49 446.92 230.52 446.92 230.52C447.65 227.44 446.18 219.73 450.59 215.13Z" id="i5zAo9GE8c"></path><path d="M444.09 222.83C442.37 217.44 441.29 214.88 441.29 214.88C441.76 214.78 445.57 213.95 446.05 213.85C446.05 213.85 447.82 220.19 448.11 222.64C448.71 226.96 448.36 229.84 448.36 229.84C448.36 229.84 447.76 230.82 446.89 230.69C445.94 230.71 445.75 230.09 445.75 230.09C445.42 228.64 444.9 225.44 444.09 222.83Z" id="c2SP561iic"></path><path d="M446.1 213.98C446.21 214.61 445.22 215.32 443.89 215.55C442.55 215.78 441.38 215.45 441.27 214.82C441.16 214.18 442.15 213.48 443.48 213.25C444.82 213.01 445.99 213.34 446.1 213.98Z" id="a1TLduNsm"></path><path d="M424.75 262.46C423.77 262.46 422.98 261.67 422.98 260.69C422.98 260.25 422.98 256.72 422.98 256.28C422.98 255.3 423.77 254.51 424.75 254.51C435.86 254.51 524.73 254.51 535.84 254.51C536.81 254.51 537.6 255.3 537.6 256.28C537.6 256.72 537.6 260.25 537.6 260.69C537.6 261.67 536.81 262.46 535.89 262.46C513.66 262.46 435.86 262.46 424.75 262.46Z" id="a4FR2IdCAA"></path><path d="M455.16 253.24L455.16 244.7C469.75 244.7 477.86 244.7 479.48 244.7C480.16 244.7 480.65 245.24 480.65 245.87C480.65 246.48 480.65 251.42 480.65 252.04C480.7 252.69 480.13 253.24 479.48 253.24C476.23 253.24 468.13 253.24 455.16 253.24Z" id="c1BDBXup2N"></path><path d="M474.99 243.36L453.83 243.36C453.42 243.36 453.19 243.36 453.15 243.36C452.79 243.36 452.47 243.66 452.47 244.04C452.47 244.4 452.77 244.72 453.15 244.72C453.28 244.72 453.95 244.72 455.16 244.72L455.16 244.72C469.02 244.72 476.71 244.72 478.25 244.72C479.59 244.72 480.65 245.81 480.65 247.12C480.65 247.49 480.65 250.52 480.65 250.9C480.65 252.23 479.56 253.29 478.25 253.29C477.9 253.29 476.15 253.29 473 253.29L473 253.29C461.2 253.29 454.65 253.29 453.34 253.29C452.98 253.29 452.66 253.59 452.66 253.97C452.66 254.32 452.96 254.65 453.34 254.65C453.37 254.65 453.53 254.65 453.83 254.65L475.15 254.65C504.02 254.65 520.06 254.65 523.27 254.65C524.6 254.65 525.66 253.56 525.66 252.26C525.66 251.62 525.66 246.48 525.66 245.84C525.64 244.4 524.6 243.36 523.24 243.36C516.81 243.36 500.72 243.36 474.99 243.36Z" id="c2iDCXthSs"></path><path d="M452.03 242.74L452.03 234.5C475.6 234.5 488.69 234.5 491.31 234.5C492.48 234.5 493.38 235.42 493.38 236.56C493.38 236.97 493.38 240.23 493.38 240.64C493.38 241.81 492.48 242.74 491.31 242.74C486.07 242.74 472.98 242.74 452.03 242.74Z" id="a5whmZZyG"></path><path d="M450.34 233.9C450.15 233.9 450.05 234.01 450.05 234.2C450.05 234.2 450.05 234.2 450.05 234.2C450.05 234.39 450.15 234.5 450.34 234.5C454.23 234.5 485.3 234.5 489.19 234.5C491.44 234.5 493.35 236.32 493.35 238.66C493.35 238.66 493.35 238.66 493.35 238.66C493.35 240.91 491.53 242.82 489.19 242.82C485.3 242.82 454.23 242.82 450.34 242.82C450.15 242.82 450.05 242.93 450.05 243.12C450.05 243.12 450.05 243.12 450.05 243.12C450.05 243.31 450.15 243.42 450.34 243.42C456.89 243.42 509.27 243.42 515.82 243.42C518.07 243.42 519.98 241.59 519.98 239.26C519.98 239.13 519.98 238.15 519.98 238.03C519.95 235.72 518.13 233.9 515.87 233.9C502.77 233.9 456.9 233.9 450.34 233.9Z" id="a14VrjihPd"></path><path d="M451.98 240.29L451.98 239.94C469.93 239.94 479.9 239.94 481.9 239.94C482.01 239.94 482.09 239.99 482.09 240.13C482.09 240.13 482.09 240.13 482.09 240.13C482.14 240.23 482.03 240.29 481.9 240.29C477.91 240.29 467.93 240.29 451.98 240.29Z" id="eck260Epy"></path><path d="M452.03 237.6L452.03 237.24C474.1 237.24 486.35 237.24 488.81 237.24C488.91 237.24 489 237.3 489 237.43C489 237.43 489 237.43 489 237.43C489 237.49 488.94 237.6 488.81 237.6C483.9 237.6 471.64 237.6 452.03 237.6Z" id="bxKzNsDr"></path><path d="M425.7 102.51C431.97 105.73 436.05 110.29 434.81 112.69C433.58 115.1 427.49 114.44 421.23 111.22C414.96 108.01 410.88 103.45 412.11 101.04C413.35 98.64 419.43 99.29 425.7 102.51Z" id="bapH9rpv4"></path><path d="M419.55 83.83C421.57 73.69 418.82 61.91 425.29 53.91C429.94 48.12 438.24 46.35 445.56 47.38C454.53 48.66 463.07 53.91 467.18 61.99C471.26 70.04 470.23 80.81 463.75 87.1C458.31 92.4 450.21 94.11 444.52 99.12C441.34 101.92 439.08 105.65 436.72 109.18C436.64 109.29 436.01 110.16 435.93 110.27C418.57 108.39 414.36 97.08 414.36 97.08C416.67 92.86 418.63 88.54 419.55 83.83Z" id="cZ00FxrXz"></path><path d="M439.87 79.72C439.38 78.26 438.59 76.38 437.07 75.75C435.36 75.07 433.4 76.24 432.07 77.28C429.13 79.53 426.87 82.83 425.54 86.25C424.21 89.68 423.53 93.32 422.3 96.81C421.81 98.22 424.07 98.82 424.56 97.4C426.08 93 426.71 88.18 429.13 84.16C430.46 81.9 432.42 79.26 434.92 78.23C435.71 77.87 436.25 77.79 436.83 78.58C437.26 79.18 437.56 79.91 437.75 80.6C437.75 80.65 437.81 80.7 437.81 80.79C437.51 80.98 437.26 81.14 437.02 81.33C434.62 83.1 431.47 86.28 431.52 89.52C431.52 90.99 432.45 92.21 433.97 92.32C435.63 92.43 437.26 91.15 438.29 89.92C440.25 87.67 440.85 84.73 440.44 81.87C440.99 81.57 441.48 81.38 441.97 81.33C443.44 81.22 442.76 83.59 442.57 84.38C441.83 87.01 440.31 89.33 438.84 91.58C437.75 93.3 436.77 95.12 435.41 96.64C433.94 98.36 431.98 99.53 430.16 100.72C428.88 101.51 430.05 103.53 431.33 102.74C433.53 101.32 435.79 99.93 437.45 97.92C439.22 95.77 440.69 93.35 442.1 90.96C443.63 88.43 445.88 84.51 445.01 81.38C444.28 78.69 441.97 78.83 439.87 79.72ZM436.34 88.65C435.85 89.19 433.59 91.04 433.78 89.33C433.89 88.29 434.7 87.18 435.3 86.33C436.09 85.25 437.13 84.27 438.24 83.4C438.24 84.02 438.24 84.7 438.05 85.36C437.75 86.58 437.21 87.75 436.34 88.65Z" id="aepBvCeI"></path><path d="M411.86 101.84C411.86 101.84 411.86 101.84 411.86 101.84C410.13 107.93 409.16 111.31 408.97 111.98C407.99 113.94 411.28 117.61 416.37 120.23C421.43 122.86 426.38 123.41 427.36 121.45C427.41 121.34 427.41 121.26 427.47 121.15C427.47 121.15 427.47 121.15 427.47 121.15L434.24 113.4C434.24 113.4 434.24 113.4 434.24 113.4C432.39 114.98 426.9 114.19 421.21 111.25C415.53 108.37 411.69 104.34 411.86 101.84Z" id="b4CnKimP3y"></path><path d="M357.92 33.35C357.67 33.24 357.56 32.91 357.67 32.67C358.11 31.69 358.6 30.76 359.25 29.92C359.44 29.68 359.74 29.62 359.98 29.81C360.23 30 360.28 30.3 360.09 30.55C359.5 31.33 359.01 32.21 358.62 33.1C358.54 33.27 358.35 33.4 358.11 33.4C358.05 33.4 358 33.4 357.92 33.35Z" id="bumLBwwEY"></path><path d="M440.44 64.79C440.37 64.77 439.78 64.57 439.71 64.55C438.05 63.95 436.36 63.27 434.51 62.53C434.27 62.43 434.16 62.1 434.21 61.85C434.32 61.61 434.65 61.5 434.89 61.55C436.66 62.29 438.38 62.97 440.04 63.57C440.11 63.59 440.7 63.79 440.77 63.81C441.01 63.92 441.21 64.25 441.07 64.49C441.04 64.71 440.88 64.85 440.63 64.85C440.58 64.85 440.53 64.85 440.44 64.79ZM428.77 59.9C426.76 58.86 424.99 57.75 423.28 56.6C423.04 56.41 422.98 56.11 423.17 55.87C423.36 55.62 423.66 55.57 423.91 55.76C425.57 56.93 427.25 57.96 429.29 58.94C429.54 59.05 429.65 59.38 429.54 59.62C429.4 59.84 429.21 59.95 429.02 59.95C428.97 59.95 428.83 59.95 428.77 59.9ZM418.41 52.5C416.89 50.97 415.53 49.26 414.39 47.49C414.2 47.25 414.33 46.95 414.58 46.76C414.82 46.57 415.12 46.7 415.31 46.95C416.4 48.66 417.7 50.24 419.23 51.76C419.42 51.95 419.42 52.31 419.23 52.5C419.01 52.63 418.87 52.69 418.76 52.69C418.66 52.69 418.52 52.63 418.41 52.5ZM411.5 41.78C410.77 39.77 410.22 37.7 409.92 35.55C409.87 35.25 410.12 35.01 410.36 34.95C410.66 34.9 410.9 35.14 410.96 35.39C411.26 37.4 411.75 39.41 412.48 41.37C412.59 41.62 412.43 41.92 412.18 42.05C412.1 42.13 412.05 42.13 411.99 42.13C411.8 42.13 411.56 42.02 411.5 41.78ZM411.91 35.22C411.61 35.17 411.42 34.93 411.48 34.63C411.53 34.33 411.77 34.14 412.07 34.19C413.16 34.38 414.33 34.44 415.42 34.44C415.42 34.44 415.42 34.44 415.42 34.44C416.4 34.44 417.32 34.38 418.22 34.25C418.52 34.19 418.76 34.44 418.82 34.68C418.87 34.93 418.63 35.22 418.38 35.28C417.35 35.42 416.37 35.47 415.39 35.47C415.39 35.47 415.39 35.47 415.39 35.47C413.85 35.43 412.69 35.35 411.91 35.22ZM405.68 33.65C403.91 33.05 402.15 32.23 399.81 31.2C399.56 31.09 399.45 30.76 399.56 30.52C399.67 30.27 400 30.17 400.24 30.27C402.5 31.31 404.27 32.1 406.04 32.72C406.28 32.83 406.47 33.08 406.33 33.4C406.31 33.51 406.06 33.65 405.87 33.65C405.82 33.65 405.76 33.65 405.68 33.65ZM423.82 33.16C423.72 32.91 423.77 32.61 424.01 32.42C424.99 31.88 425.84 31.25 426.65 30.52C427.33 29.92 427.93 29.19 428.42 28.32C428.53 28.07 428.91 28.02 429.16 28.13C429.4 28.23 429.45 28.61 429.35 28.86C428.8 29.78 428.12 30.57 427.39 31.25C426.54 32.04 425.62 32.72 424.59 33.27C424.45 33.4 424.31 33.4 424.26 33.4C424.07 33.4 423.91 33.29 423.82 33.16ZM410.33 29.73C409.98 29.68 409.79 29.43 409.84 29.19C410.09 26.93 410.69 24.86 411.61 22.96C411.72 22.71 412.05 22.6 412.29 22.71C412.54 22.82 412.64 23.15 412.54 23.39C411.69 25.16 411.07 27.12 410.82 29.27C410.82 29.54 410.58 29.73 410.33 29.73C410.33 29.73 410.33 29.73 410.33 29.73ZM394.09 28.45C393.41 28.15 392.76 27.85 392.08 27.53C390.75 26.93 389.52 26.44 388.35 25.95C388.11 25.84 387.92 25.51 388.06 25.27C388.16 25.02 388.49 24.83 388.74 24.97C389.96 25.46 391.18 25.95 392.52 26.55C393.2 26.85 393.85 27.15 394.53 27.47C394.77 27.58 394.88 27.91 394.77 28.15C394.69 28.4 394.53 28.51 394.34 28.51C394.28 28.51 394.23 28.51 394.09 28.45ZM363.79 26.25C363.6 26 363.74 25.7 363.98 25.51C365.75 24.34 367.76 23.5 369.91 22.96C370.21 22.9 370.46 23.07 370.51 23.31C370.57 23.61 370.4 23.85 370.16 23.91C368.14 24.45 366.24 25.24 364.53 26.36C364.47 26.49 364.34 26.49 364.23 26.49C364.04 26.49 363.87 26.44 363.79 26.25ZM382.45 24.1C380.3 23.61 378.24 23.37 376.28 23.31C375.98 23.31 375.79 23.07 375.79 22.77C375.79 22.47 376.03 22.28 376.28 22.28C376.28 22.28 376.28 22.28 376.28 22.28C378.29 22.33 380.44 22.58 382.62 23.07C382.91 23.12 383.05 23.42 382.97 23.66C382.97 23.99 382.78 24.1 382.56 24.1C382.51 24.1 382.51 24.1 382.45 24.1ZM429.94 22.63C429.89 20.86 429.21 19.34 428.18 18.22C427.93 17.98 427.69 17.73 427.44 17.54C427.2 17.35 427.2 17.05 427.33 16.81C427.52 16.57 427.82 16.57 428.07 16.7C428.37 16.95 428.67 17.19 428.91 17.49C430.19 18.82 430.92 20.54 430.98 22.55C430.98 22.88 430.73 23.12 430.43 23.12C430.49 23.12 430.43 23.12 430.43 23.12C430.13 23.12 429.94 22.88 429.94 22.63ZM415.53 18.61C415.34 18.36 415.42 18.06 415.64 17.87C417.4 16.54 419.55 15.61 421.62 15.31C421.92 15.26 422.16 15.5 422.22 15.75C422.27 16.05 422.03 16.29 421.78 16.35C419.83 16.59 417.87 17.44 416.29 18.74C416.21 18.8 416.07 18.8 415.96 18.8C415.77 18.8 415.66 18.74 415.53 18.61Z" id="a1FxmA0Prp"></path><path d="M448.71 68.82C448.17 68.33 447.38 67.78 446.26 67.24C446.02 67.13 445.91 66.8 446.02 66.56C446.13 66.31 446.46 66.21 446.7 66.31C447.87 66.91 448.71 67.48 449.39 68.03C449.58 68.22 449.64 68.57 449.45 68.76C449.37 68.87 449.18 68.93 449.07 68.93C448.96 68.93 448.82 68.87 448.71 68.82Z" id="al0OoZofy"></path><path d="M447.27 37.56C447.22 40.86 457.96 39.82 458.7 36.97C461.58 25.49 459.54 13.08 455.89 2.04C454.72 -1.6 443.54 0.16 444.47 3.29C444.47 3.29 444.47 3.29 444.47 3.29C446.55 18.2 447.49 29.62 447.27 37.56Z" id="ckCv0L3UC"></path><path d="M471.94 51.41C469 55 479.26 54.4 481.16 52.69C489.35 45.48 495.69 35.77 500.58 26.11C502.05 23.31 491.85 23.31 490.33 26.11C490.33 26.11 490.33 26.11 490.33 26.11C482.51 37.52 476.38 45.95 471.94 51.41Z" id="b3shgzSZ"></path><path d="M510.43 75.78C513.07 75.97 517.15 74.94 517.94 72C518.73 69.06 515.25 67.48 512.93 67.35C505.62 66.91 498.33 66.61 491.01 66.37C488.37 66.31 484.35 67.16 483.5 70.15C482.71 73.09 486.11 74.75 488.51 74.8C488.51 74.8 488.51 74.8 488.51 74.8C498.28 75.16 505.59 75.49 510.43 75.78Z" id="dGXq4uZmE"></path><path d="M358.73 263.87C358.79 266.56 358.73 270.84 358.73 270.84C358.73 270.84 360.75 270.84 361.78 270.73C362.81 270.67 364.04 270.43 364.04 270.43C364.04 270.43 362.81 266.4 361.54 262.38C360.31 258.81 357.02 250.43 357.02 250.43C357.36 253.12 358.6 259.47 358.73 263.87Z" id="a25vk7zojc"></path><path d="M283.66 260.25C282.93 263.3 283.22 265.99 283.06 266.73C282.82 268.01 281.54 271.54 280.91 273.2C280.72 273.69 280.18 273.99 279.69 273.88C278.85 273.69 277.54 273.39 276.56 273.09C274.98 272.6 273.87 272.11 274.11 272.25C274.11 272.25 277.54 267.35 279.99 263.22C282.08 259.66 286.84 249.95 286.84 249.95C286.21 252.01 284.64 256.23 283.66 260.25Z" id="g6V6UpeBQJ"></path><path d="M385.23 420.68C390.12 452.81 390.53 485.47 389.01 517.9C388.16 536.64 386.56 555.32 384.79 574.01C384.6 576.16 387.92 576.08 388.08 574.01C391.27 540.47 393.77 506.83 392.9 473.18C392.11 441.74 388.38 410.21 379.9 379.94C375.19 363.21 368.96 346.83 361.15 331.27C360.2 329.4 357.32 331.06 358.3 332.93C358.3 332.93 358.3 332.93 358.3 332.93C373.2 371.2 382.18 400.45 385.23 420.68Z" id="b1gKwapcz"></path><path d="M260.24 421.44C256.46 452.4 255.53 483.79 255.92 514.93C256.16 533.43 257.09 551.87 259.21 570.26C259.45 572.33 262.74 572.41 262.5 570.26C258.77 538.13 258.58 505.71 259.75 473.4C260.78 443.29 263.34 413.07 270.06 383.55C273.79 367.07 278.85 350.75 285.56 335.25C286.35 333.37 283.55 331.66 282.71 333.61C282.71 333.61 282.71 333.61 282.71 333.61C270.16 372.09 262.67 401.37 260.24 421.44Z" id="f1D2l2m0Va"></path><path d="M206.9 261.18C204.16 261.18 202.64 261.18 202.33 261.18C202.03 261.67 201.65 262.1 201.24 262.46C201.94 262.46 207.56 262.46 208.26 262.46C208.61 262.46 208.94 262.16 208.94 261.78C208.94 261.78 208.94 261.78 208.94 261.78C208.99 261.48 208.7 261.18 208.31 261.18C208.13 261.18 207.65 261.18 206.9 261.18Z" id="a28FBoGCD8"></path><path d="M208.99 239.5C208.99 239.15 208.7 238.82 208.31 238.82C208 238.82 206.41 238.82 203.55 238.82L203.55 240.1L208.31 240.18L208.31 240.18C208.77 239.98 208.99 239.75 208.99 239.5Z" id="a1JVlc4VT8"></path><path d="M191.31 262.48C187.31 262.48 167.31 262.48 131.31 262.48C131.31 262.6 131.31 262.66 131.31 262.67C131.31 264.09 131.8 265.37 132.64 266.59C139 266.59 189.85 266.59 196.21 266.59C197.52 266.56 198.66 265.94 199.69 264.8C196.89 264.2 194.06 263.38 191.31 262.48Z" id="fZRf2VI9"></path><path d="M437.21 266.54C443.86 266.54 497.11 266.54 503.77 266.54C504.07 265.75 504.26 264.96 504.2 264.04C504.2 263.93 504.2 263.4 504.2 262.46C466.75 262.46 445.94 262.46 441.78 262.46C439.11 263.33 436.42 264.12 433.67 264.72C434.7 265.88 435.93 266.54 437.21 266.54Z" id="b4ObiLtp2"></path><path d="M287.47 310.09C287.47 310.09 287.17 311.66 286.79 313.81C295.95 316.7 308.36 318.14 321.96 317.65C334.77 317.16 346.38 314.9 355.17 311.66C355.28 311.61 355.36 311.55 355.47 311.47C355.47 311.42 355.47 311.36 355.47 311.36C355.47 311.36 336.86 313.57 321.9 313.51C307.73 313.51 294.36 310.77 287.47 310.09Z" id="b1vXIa91Tt"></path></defs><g><g><g><use xlink:href="#bLNRa9Nhm" opacity="1" fill="#f9f4ee" fill-opacity="1"></use></g><g><use xlink:href="#cAarqamUH" opacity="1" fill="#ebdbcd" fill-opacity="1"></use><g><use xlink:href="#cAarqamUH" opacity="1" fill-opacity="0" stroke="#000000" stroke-width="1" stroke-opacity="0"></use></g></g><g><use xlink:href="#crAiUyEIo" opacity="1" fill="#fcb58a" fill-opacity="1"></use><g><use xlink:href="#crAiUyEIo" opacity="1" fill-opacity="0" stroke="#000000" stroke-width="1" stroke-opacity="0"></use></g></g><g><use xlink:href="#aolW8JTre" opacity="1" fill="#fcb58a" fill-opacity="1"></use><g><use xlink:href="#aolW8JTre" opacity="1" fill-opacity="0" stroke="#000000" stroke-width="1" stroke-opacity="0"></use></g></g><g><use xlink:href="#b6fTYl3Av5" opacity="1" fill="#fcb58a" fill-opacity="1"></use><g><use xlink:href="#b6fTYl3Av5" opacity="1" fill-opacity="0" stroke="#000000" stroke-width="1" stroke-opacity="0"></use></g></g><g><use xlink:href="#cmUANDw56" opacity="1" fill="#fcb58a" fill-opacity="1"></use><g><use xlink:href="#cmUANDw56" opacity="1" fill-opacity="0" stroke="#000000" stroke-width="1" stroke-opacity="0"></use></g></g><g><use xlink:href="#biDyyCqZP" opacity="1" fill="#dec7b2" fill-opacity="1"></use><g><use xlink:href="#biDyyCqZP" opacity="1" fill-opacity="0" stroke="#000000" stroke-width="1" stroke-opacity="0"></use></g></g><g><use xlink:href="#chjuEiM8M" opacity="1" fill="#e8d4c1" fill-opacity="1"></use><g><use xlink:href="#chjuEiM8M" opacity="1" fill-opacity="0" stroke="#000000" stroke-width="1" stroke-opacity="0"></use></g></g><g><use xlink:href="#aCjxYF9JY" opacity="1" fill="#ba9c7e" fill-opacity="1"></use><g><use xlink:href="#aCjxYF9JY" opacity="1" fill-opacity="0" stroke="#000000" stroke-width="1" stroke-opacity="0"></use></g></g><g><use xlink:href="#b4K6rGOmu9" opacity="1" fill="#ebdbcd" fill-opacity="1"></use><g><use xlink:href="#b4K6rGOmu9" opacity="1" fill-opacity="0" stroke="#000000" stroke-width="1" stroke-opacity="0"></use></g></g><g><use xlink:href="#hszEALZRn" opacity="1" fill="#4c7378" fill-opacity="1"></use><g><use xlink:href="#hszEALZRn" opacity="1" fill-opacity="0" stroke="#000000" stroke-width="1" stroke-opacity="0"></use></g></g><g><use xlink:href="#dFGyFoTcT" opacity="1" fill="#57848a" fill-opacity="1"></use><g><use xlink:href="#dFGyFoTcT" opacity="1" fill-opacity="0" stroke="#000000" stroke-width="1" stroke-opacity="0"></use></g></g><g><use xlink:href="#b6TUqAzeC" opacity="1" fill="#689399" fill-opacity="1"></use><g><use xlink:href="#b6TUqAzeC" opacity="1" fill-opacity="0" stroke="#000000" stroke-width="1" stroke-opacity="0"></use></g></g><g><use xlink:href="#ch8VQlsSE" opacity="1" fill="#fcb58a" fill-opacity="1"></use><g><use xlink:href="#ch8VQlsSE" opacity="1" fill-opacity="0" stroke="#000000" stroke-width="1" stroke-opacity="0"></use></g></g><g><use xlink:href="#bKsbJvwXy" opacity="1" fill="#fcb58a" fill-opacity="1"></use><g><use xlink:href="#bKsbJvwXy" opacity="1" fill-opacity="0" stroke="#000000" stroke-width="1" stroke-opacity="0"></use></g></g><g><use xlink:href="#c5Nu5OWuR" opacity="1" fill="#d4bfa9" fill-opacity="1"></use><g><use xlink:href="#c5Nu5OWuR" opacity="1" fill-opacity="0" stroke="#000000" stroke-width="1" stroke-opacity="0"></use></g></g><g><use xlink:href="#cAnw1ROca" opacity="1" fill="#ebdbcd" fill-opacity="1"></use><g><use xlink:href="#cAnw1ROca" opacity="1" fill-opacity="0" stroke="#000000" stroke-width="1" stroke-opacity="0"></use></g></g><g><use xlink:href="#g1dRBnz6HI" opacity="1" fill="#110580" fill-opacity="1"></use><g><use xlink:href="#g1dRBnz6HI" opacity="1" fill-opacity="0" stroke="#000000" stroke-width="1" stroke-opacity="0"></use></g></g><g><use xlink:href="#b7yd7bwRo" opacity="1" fill="#110580" fill-opacity="1"></use><g><use xlink:href="#b7yd7bwRo" opacity="1" fill-opacity="0" stroke="#000000" stroke-width="1" stroke-opacity="0"></use></g></g><g><use xlink:href="#a70BEAErrF" opacity="1" fill="#110580" fill-opacity="1"></use><g><use xlink:href="#a70BEAErrF" opacity="1" fill-opacity="0" stroke="#000000" stroke-width="1" stroke-opacity="0"></use></g></g><g><use xlink:href="#bWG1pi7B" opacity="1" fill="#110580" fill-opacity="1"></use><g><use xlink:href="#bWG1pi7B" opacity="1" fill-opacity="0" stroke="#000000" stroke-width="1" stroke-opacity="0"></use></g></g><g><use xlink:href="#dwwHh50e4" opacity="1" fill="#110580" fill-opacity="1"></use><g><use xlink:href="#dwwHh50e4" opacity="1" fill-opacity="0" stroke="#000000" stroke-width="1" stroke-opacity="0"></use></g></g><g><use xlink:href="#d3MZf3NyOP" opacity="1" fill="#110580" fill-opacity="1"></use><g><use xlink:href="#d3MZf3NyOP" opacity="1" fill-opacity="0" stroke="#000000" stroke-width="1" stroke-opacity="0"></use></g></g><g><use xlink:href="#bcqQYwx4y" opacity="1" fill="#110580" fill-opacity="1"></use><g><use xlink:href="#bcqQYwx4y" opacity="1" fill-opacity="0" stroke="#000000" stroke-width="1" stroke-opacity="0"></use></g></g><g><use xlink:href="#bPykXHZVo" opacity="1" fill="#110580" fill-opacity="1"></use><g><use xlink:href="#bPykXHZVo" opacity="1" fill-opacity="0" stroke="#000000" stroke-width="1" stroke-opacity="0"></use></g></g><g><use xlink:href="#e2Mb6pnN5M" opacity="1" fill="#110580" fill-opacity="1"></use><g><use xlink:href="#e2Mb6pnN5M" opacity="1" fill-opacity="0" stroke="#000000" stroke-width="1" stroke-opacity="0"></use></g></g><g><use xlink:href="#dqHbZFydU" opacity="1" fill="#110580" fill-opacity="1"></use><g><use xlink:href="#dqHbZFydU" opacity="1" fill-opacity="0" stroke="#000000" stroke-width="1" stroke-opacity="0"></use></g></g><g><use xlink:href="#e9fEUMqty" opacity="1" fill="#110580" fill-opacity="1"></use><g><use xlink:href="#e9fEUMqty" opacity="1" fill-opacity="0" stroke="#000000" stroke-width="1" stroke-opacity="0"></use></g></g><g><use xlink:href="#a1hiS65MrX" opacity="1" fill="#110580" fill-opacity="1"></use><g><use xlink:href="#a1hiS65MrX" opacity="1" fill-opacity="0" stroke="#000000" stroke-width="1" stroke-opacity="0"></use></g></g><g><use xlink:href="#b34URS1Ps" opacity="1" fill="#110580" fill-opacity="1"></use><g><use xlink:href="#b34URS1Ps" opacity="1" fill-opacity="0" stroke="#000000" stroke-width="1" stroke-opacity="0"></use></g></g><g><use xlink:href="#b1RjmAltwG" opacity="1" fill="#110580" fill-opacity="1"></use><g><use xlink:href="#b1RjmAltwG" opacity="1" fill-opacity="0" stroke="#000000" stroke-width="1" stroke-opacity="0"></use></g></g><g><use xlink:href="#b1C9z9tQNp" opacity="1" fill="#110580" fill-opacity="1"></use><g><use xlink:href="#b1C9z9tQNp" opacity="1" fill-opacity="0" stroke="#000000" stroke-width="1" stroke-opacity="0"></use></g></g><g><use xlink:href="#d1kbxhKEEU" opacity="1" fill="#110580" fill-opacity="1"></use><g><use xlink:href="#d1kbxhKEEU" opacity="1" fill-opacity="0" stroke="#000000" stroke-width="1" stroke-opacity="0"></use></g></g><g><use xlink:href="#a87XNqUhW" opacity="1" fill="#110580" fill-opacity="1"></use><g><use xlink:href="#a87XNqUhW" opacity="1" fill-opacity="0" stroke="#000000" stroke-width="1" stroke-opacity="0"></use></g></g><g><use xlink:href="#courrLSkJ" opacity="1" fill="#fcb58a" fill-opacity="1"></use><g><use xlink:href="#courrLSkJ" opacity="1" fill-opacity="0" stroke="#000000" stroke-width="1" stroke-opacity="0"></use></g></g><g><use xlink:href="#aecQd9QtO" opacity="1" fill="#001d80" fill-opacity="1"></use><g><use xlink:href="#aecQd9QtO" opacity="1" fill-opacity="0" stroke="#000000" stroke-width="1" stroke-opacity="0"></use></g></g><g><use xlink:href="#a2i8496qa1" opacity="1" fill="#110580" fill-opacity="1"></use><g><use xlink:href="#a2i8496qa1" opacity="1" fill-opacity="0" stroke="#000000" stroke-width="1" stroke-opacity="0"></use></g></g><g><use xlink:href="#a179q5QfnW" opacity="1" fill="#ffffff" fill-opacity="1"></use><g><use xlink:href="#a179q5QfnW" opacity="1" fill-opacity="0" stroke="#000000" stroke-width="1" stroke-opacity="0"></use></g></g><g><use xlink:href="#f54hR6U530" opacity="1" fill="#ffffff" fill-opacity="1"></use><g><use xlink:href="#f54hR6U530" opacity="1" fill-opacity="0" stroke="#000000" stroke-width="1" stroke-opacity="0"></use></g></g><g><use xlink:href="#a1sLmxbTdh" opacity="1" fill="#fcb58a" fill-opacity="1"></use><g><use xlink:href="#a1sLmxbTdh" opacity="1" fill-opacity="0" stroke="#000000" stroke-width="1" stroke-opacity="0"></use></g></g><g><use xlink:href="#dtpsD6qTE" opacity="1" fill="#110580" fill-opacity="1"></use><g><use xlink:href="#dtpsD6qTE" opacity="1" fill-opacity="0" stroke="#000000" stroke-width="1" stroke-opacity="0"></use></g></g><g><use xlink:href="#cImLYGt8k" opacity="1" fill="#ffffff" fill-opacity="1"></use><g><use xlink:href="#cImLYGt8k" opacity="1" fill-opacity="0" stroke="#000000" stroke-width="1" stroke-opacity="0"></use></g></g><g><use xlink:href="#dnMCD7Ayp" opacity="1" fill="#000000" fill-opacity="0"></use><g><use xlink:href="#dnMCD7Ayp" opacity="1" fill-opacity="0" stroke="#000000" stroke-width="1" stroke-opacity="0"></use></g></g><g><use xlink:href="#d1QcowCLh" opacity="1" fill="#e3996d" fill-opacity="1"></use><g><use xlink:href="#d1QcowCLh" opacity="1" fill-opacity="0" stroke="#000000" stroke-width="1" stroke-opacity="0"></use></g></g><g><use xlink:href="#b33zautvFM" opacity="1" fill="#fcb58a" fill-opacity="1"></use><g><use xlink:href="#b33zautvFM" opacity="1" fill-opacity="0" stroke="#000000" stroke-width="1" stroke-opacity="0"></use></g></g><g><use xlink:href="#bcfqH6b8D" opacity="1" fill="#ffadb2" fill-opacity="1"></use><g><use xlink:href="#bcfqH6b8D" opacity="1" fill-opacity="0" stroke="#000000" stroke-width="1" stroke-opacity="0"></use></g></g><g><use xlink:href="#b1spsF5Bg4" opacity="1" fill="#aaace3" fill-opacity="1"></use><g><use xlink:href="#b1spsF5Bg4" opacity="1" fill-opacity="0" stroke="#000000" stroke-width="1" stroke-opacity="0"></use></g></g><g><use xlink:href="#a4UTefSksv" opacity="1" fill="#aaace3" fill-opacity="1"></use><g><use xlink:href="#a4UTefSksv" opacity="1" fill-opacity="0" stroke="#000000" stroke-width="1" stroke-opacity="0"></use></g></g><g><use xlink:href="#gJnc4jRTM" opacity="1" fill="#ffadb2" fill-opacity="1"></use><g><use xlink:href="#gJnc4jRTM" opacity="1" fill-opacity="0" stroke="#000000" stroke-width="1" stroke-opacity="0"></use></g></g><g><use xlink:href="#f3IW1xsFHQ" opacity="1" fill="#dadaed" fill-opacity="1"></use><g><use xlink:href="#f3IW1xsFHQ" opacity="1" fill-opacity="0" stroke="#000000" stroke-width="1" stroke-opacity="0"></use></g></g><g><use xlink:href="#a19oieXfoK" opacity="1" fill="#989bd7" fill-opacity="1"></use><g><use xlink:href="#a19oieXfoK" opacity="1" fill-opacity="0" stroke="#000000" stroke-width="1" stroke-opacity="0"></use></g></g><g><use xlink:href="#a80zDKnb9r" opacity="1" fill="#989bd7" fill-opacity="1"></use><g><use xlink:href="#a80zDKnb9r" opacity="1" fill-opacity="0" stroke="#000000" stroke-width="1" stroke-opacity="0"></use></g></g><g><use xlink:href="#b1WtDyaCKe" opacity="1" fill="#989bd7" fill-opacity="1"></use><g><use xlink:href="#b1WtDyaCKe" opacity="1" fill-opacity="0" stroke="#000000" stroke-width="1" stroke-opacity="0"></use></g></g><g><use xlink:href="#b2yeO02e8F" opacity="1" fill="#989bd7" fill-opacity="1"></use><g><use xlink:href="#b2yeO02e8F" opacity="1" fill-opacity="0" stroke="#000000" stroke-width="1" stroke-opacity="0"></use></g></g><g><use xlink:href="#b1oDiDvVTI" opacity="1" fill="#989bd7" fill-opacity="1"></use><g><use xlink:href="#b1oDiDvVTI" opacity="1" fill-opacity="0" stroke="#000000" stroke-width="1" stroke-opacity="0"></use></g></g><g><use xlink:href="#a6QfWXwtBr" opacity="1" fill="#989bd7" fill-opacity="1"></use><g><use xlink:href="#a6QfWXwtBr" opacity="1" fill-opacity="0" stroke="#000000" stroke-width="1" stroke-opacity="0"></use></g></g><g><use xlink:href="#aoxE8I2GH" opacity="1" fill="#989bd7" fill-opacity="1"></use><g><use xlink:href="#aoxE8I2GH" opacity="1" fill-opacity="0" stroke="#000000" stroke-width="1" stroke-opacity="0"></use></g></g><g><use xlink:href="#c2y89NCJoq" opacity="1" fill="#ffadb2" fill-opacity="1"></use><g><use xlink:href="#c2y89NCJoq" opacity="1" fill-opacity="0" stroke="#000000" stroke-width="1" stroke-opacity="0"></use></g></g><g><use xlink:href="#f4PzitZRwC" opacity="1" fill="#ff7a82" fill-opacity="1"></use><g><use xlink:href="#f4PzitZRwC" opacity="1" fill-opacity="0" stroke="#000000" stroke-width="1" stroke-opacity="0"></use></g></g><g><use xlink:href="#c4H2MWZ1K" opacity="1" fill="#2b31ba" fill-opacity="1"></use><g><use xlink:href="#c4H2MWZ1K" opacity="1" fill-opacity="0" stroke="#000000" stroke-width="1" stroke-opacity="0"></use></g></g><g><use xlink:href="#a2ntPZVXbY" opacity="1" fill="#f8d7bc" fill-opacity="1"></use><g><use xlink:href="#a2ntPZVXbY" opacity="1" fill-opacity="0" stroke="#000000" stroke-width="1" stroke-opacity="0"></use></g></g><g><use xlink:href="#abh08d6VV" opacity="1" fill="#ff7a82" fill-opacity="1"></use><g><use xlink:href="#abh08d6VV" opacity="1" fill-opacity="0" stroke="#000000" stroke-width="1" stroke-opacity="0"></use></g></g><g><use xlink:href="#b1qQRX9fgd" opacity="1" fill="#f8ece2" fill-opacity="1"></use><g><use xlink:href="#b1qQRX9fgd" opacity="1" fill-opacity="0" stroke="#000000" stroke-width="1" stroke-opacity="0"></use></g></g><g><use xlink:href="#g23BoAon4f" opacity="1" fill="#2b31ba" fill-opacity="1"></use><g><use xlink:href="#g23BoAon4f" opacity="1" fill-opacity="0" stroke="#000000" stroke-width="1" stroke-opacity="0"></use></g></g><g><use xlink:href="#a4LBejEsWv" opacity="1" fill="#ebd0be" fill-opacity="1"></use><g><use xlink:href="#a4LBejEsWv" opacity="1" fill-opacity="0" stroke="#000000" stroke-width="1" stroke-opacity="0"></use></g></g><g><use xlink:href="#d2ryWfWyEc" opacity="1" fill="#ebd0be" fill-opacity="1"></use><g><use xlink:href="#d2ryWfWyEc" opacity="1" fill-opacity="0" stroke="#000000" stroke-width="1" stroke-opacity="0"></use></g></g><g><use xlink:href="#f1UuJO59SV" opacity="1" fill="#ebd0be" fill-opacity="1"></use><g><use xlink:href="#f1UuJO59SV" opacity="1" fill-opacity="0" stroke="#000000" stroke-width="1" stroke-opacity="0"></use></g></g><g><use xlink:href="#bjutvqWS3" opacity="1" fill="#ebd0be" fill-opacity="1"></use><g><use xlink:href="#bjutvqWS3" opacity="1" fill-opacity="0" stroke="#000000" stroke-width="1" stroke-opacity="0"></use></g></g><g><use xlink:href="#a5NyGrA0Zc" opacity="1" fill="#f8e7d8" fill-opacity="1"></use><g><use xlink:href="#a5NyGrA0Zc" opacity="1" fill-opacity="0" stroke="#000000" stroke-width="1" stroke-opacity="0"></use></g></g><g><use xlink:href="#j1Wl13okNI" opacity="1" fill="#ff5856" fill-opacity="1"></use><g><use xlink:href="#j1Wl13okNI" opacity="1" fill-opacity="0" stroke="#000000" stroke-width="1" stroke-opacity="0"></use></g></g><g><use xlink:href="#a5XrB9i5Qj" opacity="1" fill="#aaace3" fill-opacity="1"></use><g><use xlink:href="#a5XrB9i5Qj" opacity="1" fill-opacity="0" stroke="#000000" stroke-width="1" stroke-opacity="0"></use></g></g><g><use xlink:href="#a3tvOwmLNo" opacity="1" fill="#d7d7e6" fill-opacity="1"></use><g><use xlink:href="#a3tvOwmLNo" opacity="1" fill-opacity="0" stroke="#000000" stroke-width="1" stroke-opacity="0"></use></g></g><g><use xlink:href="#h1lQA35FTc" opacity="1" fill="#c7645d" fill-opacity="1"></use><g><use xlink:href="#h1lQA35FTc" opacity="1" fill-opacity="0" stroke="#000000" stroke-width="1" stroke-opacity="0"></use></g></g><g><use xlink:href="#g6a9y8h7sh" opacity="1" fill="#c7645d" fill-opacity="1"></use><g><use xlink:href="#g6a9y8h7sh" opacity="1" fill-opacity="0" stroke="#000000" stroke-width="1" stroke-opacity="0"></use></g></g><g><use xlink:href="#cWCIqjMvW" opacity="1" fill="#c7645d" fill-opacity="1"></use><g><use xlink:href="#cWCIqjMvW" opacity="1" fill-opacity="0" stroke="#000000" stroke-width="1" stroke-opacity="0"></use></g></g><g><use xlink:href="#b7XGC5zxA" opacity="1" fill="#aaace3" fill-opacity="1"></use><g><use xlink:href="#b7XGC5zxA" opacity="1" fill-opacity="0" stroke="#000000" stroke-width="1" stroke-opacity="0"></use></g></g><g><use xlink:href="#e5pA0QeE9K" opacity="1" fill="#aaace3" fill-opacity="1"></use><g><use xlink:href="#e5pA0QeE9K" opacity="1" fill-opacity="0" stroke="#000000" stroke-width="1" stroke-opacity="0"></use></g></g><g><use xlink:href="#b85Q6cO09" opacity="1" fill="#aaace3" fill-opacity="1"></use><g><use xlink:href="#b85Q6cO09" opacity="1" fill-opacity="0" stroke="#000000" stroke-width="1" stroke-opacity="0"></use></g></g><g><use xlink:href="#acAQrSOCP" opacity="1" fill="#ff5856" fill-opacity="1"></use><g><use xlink:href="#acAQrSOCP" opacity="1" fill-opacity="0" stroke="#000000" stroke-width="1" stroke-opacity="0"></use></g></g><g><use xlink:href="#i5zAo9GE8c" opacity="1" fill="#4c7378" fill-opacity="1"></use><g><use xlink:href="#i5zAo9GE8c" opacity="1" fill-opacity="0" stroke="#000000" stroke-width="1" stroke-opacity="0"></use></g></g><g><use xlink:href="#c2SP561iic" opacity="1" fill="#6b4d3a" fill-opacity="1"></use><g><use xlink:href="#c2SP561iic" opacity="1" fill-opacity="0" stroke="#000000" stroke-width="1" stroke-opacity="0"></use></g></g><g><use xlink:href="#a1TLduNsm" opacity="1" fill="#8a634b" fill-opacity="1"></use><g><use xlink:href="#a1TLduNsm" opacity="1" fill-opacity="0" stroke="#000000" stroke-width="1" stroke-opacity="0"></use></g></g><g><use xlink:href="#a4FR2IdCAA" opacity="1" fill="#c5c6e3" fill-opacity="1"></use><g><use xlink:href="#a4FR2IdCAA" opacity="1" fill-opacity="0" stroke="#000000" stroke-width="1" stroke-opacity="0"></use></g></g><g><use xlink:href="#c1BDBXup2N" opacity="1" fill="#f8d0b3" fill-opacity="1"></use><g><use xlink:href="#c1BDBXup2N" opacity="1" fill-opacity="0" stroke="#000000" stroke-width="1" stroke-opacity="0"></use></g></g><g><use xlink:href="#c2iDCXthSs" opacity="1" fill="#ff7a82" fill-opacity="1"></use><g><use xlink:href="#c2iDCXthSs" opacity="1" fill-opacity="0" stroke="#000000" stroke-width="1" stroke-opacity="0"></use></g></g><g><use xlink:href="#a5whmZZyG" opacity="1" fill="#f8e7d8" fill-opacity="1"></use><g><use xlink:href="#a5whmZZyG" opacity="1" fill-opacity="0" stroke="#000000" stroke-width="1" stroke-opacity="0"></use></g></g><g><use xlink:href="#a14VrjihPd" opacity="1" fill="#4e53ba" fill-opacity="1"></use><g><use xlink:href="#a14VrjihPd" opacity="1" fill-opacity="0" stroke="#000000" stroke-width="1" stroke-opacity="0"></use></g></g><g><use xlink:href="#eck260Epy" opacity="1" fill="#debca7" fill-opacity="1"></use><g><use xlink:href="#eck260Epy" opacity="1" fill-opacity="0" stroke="#000000" stroke-width="1" stroke-opacity="0"></use></g></g><g><use xlink:href="#bxKzNsDr" opacity="1" fill="#debca7" fill-opacity="1"></use><g><use xlink:href="#bxKzNsDr" opacity="1" fill-opacity="0" stroke="#000000" stroke-width="1" stroke-opacity="0"></use></g></g><g><use xlink:href="#bapH9rpv4" opacity="1" fill="#d4bfa9" fill-opacity="1"></use><g><use xlink:href="#bapH9rpv4" opacity="1" fill-opacity="0" stroke="#000000" stroke-width="1" stroke-opacity="0"></use></g></g><g><use xlink:href="#cZ00FxrXz" opacity="1" fill="#ebdbcd" fill-opacity="1"></use><g><use xlink:href="#cZ00FxrXz" opacity="1" fill-opacity="0" stroke="#000000" stroke-width="1" stroke-opacity="0"></use></g></g><g><use xlink:href="#aepBvCeI" opacity="1" fill="#bfa990" fill-opacity="1"></use><g><use xlink:href="#aepBvCeI" opacity="1" fill-opacity="0" stroke="#000000" stroke-width="1" stroke-opacity="0"></use></g></g><g><use xlink:href="#b4CnKimP3y" opacity="1" fill="#bfa990" fill-opacity="1"></use><g><use xlink:href="#b4CnKimP3y" opacity="1" fill-opacity="0" stroke="#000000" stroke-width="1" stroke-opacity="0"></use></g></g><g><use xlink:href="#bumLBwwEY" opacity="1" fill="#110580" fill-opacity="1"></use><g><use xlink:href="#bumLBwwEY" opacity="1" fill-opacity="0" stroke="#000000" stroke-width="1" stroke-opacity="0"></use></g></g><g><use xlink:href="#a1FxmA0Prp" opacity="1" fill="#110580" fill-opacity="1"></use><g><use xlink:href="#a1FxmA0Prp" opacity="1" fill-opacity="0" stroke="#000000" stroke-width="1" stroke-opacity="0"></use></g></g><g><use xlink:href="#al0OoZofy" opacity="1" fill="#110580" fill-opacity="1"></use><g><use xlink:href="#al0OoZofy" opacity="1" fill-opacity="0" stroke="#000000" stroke-width="1" stroke-opacity="0"></use></g></g><g><use xlink:href="#ckCv0L3UC" opacity="1" fill="#f3e9e1" fill-opacity="1"></use><g><use xlink:href="#ckCv0L3UC" opacity="1" fill-opacity="0" stroke="#000000" stroke-width="1" stroke-opacity="0"></use></g></g><g><use xlink:href="#b3shgzSZ" opacity="1" fill="#f3e9e1" fill-opacity="1"></use><g><use xlink:href="#b3shgzSZ" opacity="1" fill-opacity="0" stroke="#000000" stroke-width="1" stroke-opacity="0"></use></g></g><g><use xlink:href="#dGXq4uZmE" opacity="1" fill="#f3e9e1" fill-opacity="1"></use><g><use xlink:href="#dGXq4uZmE" opacity="1" fill-opacity="0" stroke="#000000" stroke-width="1" stroke-opacity="0"></use></g></g><g><use xlink:href="#a25vk7zojc" opacity="1" fill="#e0e0e0" fill-opacity="1"></use><g><use xlink:href="#a25vk7zojc" opacity="1" fill-opacity="0" stroke="#000000" stroke-width="1" stroke-opacity="0"></use></g></g><g><use xlink:href="#g6V6UpeBQJ" opacity="1" fill="#e0e0e0" fill-opacity="1"></use><g><use xlink:href="#g6V6UpeBQJ" opacity="1" fill-opacity="0" stroke="#000000" stroke-width="1" stroke-opacity="0"></use></g></g><g><use xlink:href="#b1gKwapcz" opacity="1" fill="#ffffff" fill-opacity="1"></use><g><use xlink:href="#b1gKwapcz" opacity="1" fill-opacity="0" stroke="#000000" stroke-width="1" stroke-opacity="0"></use></g></g><g><use xlink:href="#f1D2l2m0Va" opacity="1" fill="#ffffff" fill-opacity="1"></use><g><use xlink:href="#f1D2l2m0Va" opacity="1" fill-opacity="0" stroke="#000000" stroke-width="1" stroke-opacity="0"></use></g></g><g><use xlink:href="#a28FBoGCD8" opacity="1" fill="#2b31ba" fill-opacity="1"></use><g><use xlink:href="#a28FBoGCD8" opacity="1" fill-opacity="0" stroke="#000000" stroke-width="1" stroke-opacity="0"></use></g></g><g><use xlink:href="#a1JVlc4VT8" opacity="1" fill="#2b31ba" fill-opacity="1"></use><g><use xlink:href="#a1JVlc4VT8" opacity="1" fill-opacity="0" stroke="#000000" stroke-width="1" stroke-opacity="0"></use></g></g><g><use xlink:href="#fZRf2VI9" opacity="1" fill="#e3996d" fill-opacity="1"></use><g><use xlink:href="#fZRf2VI9" opacity="1" fill-opacity="0" stroke="#000000" stroke-width="1" stroke-opacity="0"></use></g></g><g><use xlink:href="#b4ObiLtp2" opacity="1" fill="#e3996d" fill-opacity="1"></use><g><use xlink:href="#b4ObiLtp2" opacity="1" fill-opacity="0" stroke="#000000" stroke-width="1" stroke-opacity="0"></use></g></g><g><use xlink:href="#b1vXIa91Tt" opacity="1" fill="#f0a173" fill-opacity="1"></use><g><use xlink:href="#b1vXIa91Tt" opacity="1" fill-opacity="0" stroke="#000000" stroke-width="1" stroke-opacity="0"></use></g></g></g></g></svg>